<?xml version="1.0" encoding="UTF-8" standalone="no"?>
<!-- Generator: Adobe Illustrator 16.0.0, SVG Export Plug-In . SVG Version: 6.00 Build 0)  -->

<svg
   xmlns:osb="http://www.openswatchbook.org/uri/2009/osb"
   xmlns:dc="http://purl.org/dc/elements/1.1/"
   xmlns:cc="http://creativecommons.org/ns#"
   xmlns:rdf="http://www.w3.org/1999/02/22-rdf-syntax-ns#"
   xmlns:svg="http://www.w3.org/2000/svg"
   xmlns="http://www.w3.org/2000/svg"
   xmlns:sodipodi="http://sodipodi.sourceforge.net/DTD/sodipodi-0.dtd"
   xmlns:inkscape="http://www.inkscape.org/namespaces/inkscape"
   version="1.1"
   id="Capa_1"
   x="0px"
   y="0px"
   width="384.25px"
   height="384.25px"
   viewBox="0 0 384.25 384.25"
   style="enable-background:new 0 0 384.25 384.25;"
   xml:space="preserve"
   sodipodi:docname="adress.svg"
   inkscape:version="0.92.1 r15371"><metadata
     id="metadata45"><rdf:RDF><cc:Work
         rdf:about=""><dc:format>image/svg+xml</dc:format><dc:type
           rdf:resource="http://purl.org/dc/dcmitype/StillImage" /><dc:title></dc:title></cc:Work></rdf:RDF></metadata><defs
     id="defs43"><linearGradient
       id="linearGradient6032"
       osb:paint="solid"><stop
         style="stop-color:#ffffff;stop-opacity:1;"
         offset="0"
         id="stop6030" /></linearGradient><linearGradient
       id="linearGradient4544"
       osb:paint="solid"><stop
         style="stop-color:#ffffff;stop-opacity:1;"
         offset="0"
         id="stop4542" /></linearGradient></defs><sodipodi:namedview
     pagecolor="#ffffff"
     bordercolor="#666666"
     borderopacity="1"
     objecttolerance="10"
     gridtolerance="10"
     guidetolerance="10"
     inkscape:pageopacity="0"
     inkscape:pageshadow="2"
     inkscape:window-width="1920"
     inkscape:window-height="1017"
     id="namedview41"
     showgrid="false"
     inkscape:zoom="1.2283669"
     inkscape:cx="125.04326"
     inkscape:cy="203.14094"
     inkscape:window-x="-8"
     inkscape:window-y="-8"
     inkscape:window-maximized="1"
     inkscape:current-layer="Capa_1" /><g
     id="g8"><g
       id="g6"><path
         d="M192.125,0C122.955,0,66.674,56.279,66.674,125.449c0,63.29,100.927,232.376,112.427,251.451    c2.757,4.557,7.694,7.35,13.024,7.35s10.267-2.793,13.021-7.35c11.504-19.074,112.43-188.161,112.43-251.451    C317.576,56.28,261.295,0,192.125,0z M192.125,339.1c-35.029-60.594-95.039-172.887-95.039-213.649    c0-52.404,42.635-95.035,95.039-95.035c52.404,0,95.039,42.631,95.039,95.035C287.164,166.198,227.154,278.498,192.125,339.1z"
         id="path2" /><path
         d="M192.125,53.214c-39.835,0-72.236,32.403-72.236,72.235c0,39.836,32.401,72.236,72.236,72.236    c39.832,0,72.236-32.4,72.236-72.236C264.361,85.618,231.957,53.214,192.125,53.214z M192.125,167.274    c-23.062,0-41.824-18.762-41.824-41.824c0-23.06,18.762-41.824,41.824-41.824c23.06,0,41.824,18.765,41.824,41.824    C233.949,148.512,215.186,167.274,192.125,167.274z"
         id="path4" /></g></g><g
     id="g10" /><g
     id="g12" /><g
     id="g14" /><g
     id="g16" /><g
     id="g18" /><g
     id="g20" /><g
     id="g22" /><g
     id="g24" /><g
     id="g26" /><g
     id="g28" /><g
     id="g30" /><g
     id="g32" /><g
     id="g34" /><g
     id="g36" /><g
     id="g38" /><path
     style="fill:#ffffff;fill-opacity:1;stroke:#ffffff;stroke-width:0;stroke-opacity:1;stroke-miterlimit:4;stroke-dasharray:0, 0;stroke-dashoffset:0"
     d="M 183.1148,379.12124 C 180.45923,376.65862 171.19426,362.19058 162.52598,346.97003 116.84501,266.75929 86.664388,203.13721 72.927587,158.09267 69.082438,145.48399 68.457468,140.60638 68.44271,123.09025 68.427058,104.51285 68.87052,101.43916 73.527968,87.84359 92.476915,32.52968 142.10423,-1.7844713 198.40832,1.4967273 c 20.05934,1.1689859 31.97832,4.2515224 48.91191,12.6497997 31.86266,15.802403 56.10013,45.285873 65.46679,79.636524 4.36183,15.996239 3.97119,44.107489 -0.85911,61.824759 -11.33931,41.59204 -50.55761,123.60193 -97.42267,203.72185 -14.89067,25.45691 -21.0759,29.35667 -31.39044,19.79158 z m 27.95256,-72.04688 c 31.037,-56.161 57.90852,-113.05009 69.21615,-146.53601 13.58599,-40.23298 6.48371,-75.372874 -20.73529,-102.591876 -19.81276,-19.81276 -43.16976,-28.591057 -72.47057,-27.236719 -31.98778,1.478535 -58.12159,16.519538 -75.54714,43.48025 -10.51328,16.266086 -13.982013,28.671345 -13.901017,49.714335 0.06088,15.81668 0.700303,19.81294 5.470867,34.19174 12.91377,38.923 40.37717,96.16656 79.57618,165.86529 8.30986,14.77555 9.2213,15.82693 11.2918,13.02542 1.23876,-1.67612 8.93331,-15.13671 17.09902,-29.91243 z"
     id="path4540"
     inkscape:connector-curvature="0" /><path
     style="fill:#ffffff;fill-opacity:1;stroke:#ffffff;stroke-width:0;stroke-linecap:square;stroke-linejoin:round;stroke-miterlimit:4;stroke-dasharray:none;stroke-dashoffset:0;stroke-opacity:1"
     d="m 187.2055,197.33685 c -6.25645,-0.71318 -9.20126,-1.21061 -13.14662,-2.22071 -26.39938,-6.75878 -46.76836,-28.25885 -52.60102,-55.52196 -1.24816,-5.83414 -1.56183,-17.81493 -0.632,-24.13927 2.252,-15.3172 8.74217,-28.628764 19.36426,-39.716771 11.85922,-12.379406 26.90533,-19.83252 44.14079,-21.86521 4.99973,-0.58965 15.45414,-0.265874 20.28053,0.628094 11.20416,2.075292 21.85365,6.731192 30.77993,13.456827 4.89379,3.687291 12.01455,11.02574 15.60926,16.086432 13.60914,19.159198 16.86506,45.040678 8.42392,66.961998 -8.7306,22.67301 -28.19568,39.50336 -51.69531,44.69796 -6.93265,1.53246 -15.45501,2.2104 -20.52374,1.63261 z m 15.31256,-31.22409 c 15.38922,-3.94752 27.1618,-16.2379 30.74853,-32.10096 0.45921,-2.03095 0.66738,-4.82564 0.66055,-8.8677 -0.008,-5.01166 -0.16721,-6.49821 -1.05212,-9.85284 -3.90644,-14.80918 -14.53257,-25.737542 -29.47563,-30.313985 -3.32733,-1.019026 -4.0982,-1.095444 -11.10584,-1.100961 -6.48395,-0.0051 -7.96937,0.116331 -10.69003,0.873927 -13.58492,3.782871 -24.15133,13.361849 -28.80498,26.113169 -4.00364,10.97023 -3.50845,22.03386 1.45631,32.53726 5.4272,11.48172 15.56811,19.76944 27.88988,22.79319 4.69027,1.15098 5.53743,1.23043 11.36996,1.06635 3.70353,-0.10418 6.15346,-0.41642 9.00337,-1.14745 z"
     id="path6036"
     inkscape:connector-curvature="0" /></svg>