<?xml version="1.0" encoding="UTF-8" standalone="no"?>
<!-- Generator: Adobe Illustrator 19.0.0, SVG Export Plug-In . SVG Version: 6.00 Build 0)  -->

<svg
   xmlns:dc="http://purl.org/dc/elements/1.1/"
   xmlns:cc="http://creativecommons.org/ns#"
   xmlns:rdf="http://www.w3.org/1999/02/22-rdf-syntax-ns#"
   xmlns:svg="http://www.w3.org/2000/svg"
   xmlns="http://www.w3.org/2000/svg"
   xmlns:sodipodi="http://sodipodi.sourceforge.net/DTD/sodipodi-0.dtd"
   xmlns:inkscape="http://www.inkscape.org/namespaces/inkscape"
   version="1.1"
   id="Layer_1"
   x="0px"
   y="0px"
   viewBox="0 0 297 297"
   style="enable-background:new 0 0 297 297;"
   xml:space="preserve"
   sodipodi:docname="authors-brain.svg"
   inkscape:version="0.92.1 r15371"><metadata
     id="metadata43"><rdf:RDF><cc:Work
         rdf:about=""><dc:format>image/svg+xml</dc:format><dc:type
           rdf:resource="http://purl.org/dc/dcmitype/StillImage" /><dc:title></dc:title></cc:Work></rdf:RDF></metadata><defs
     id="defs41" /><sodipodi:namedview
     pagecolor="#ffffff"
     bordercolor="#666666"
     borderopacity="1"
     objecttolerance="10"
     gridtolerance="10"
     guidetolerance="10"
     inkscape:pageopacity="0"
     inkscape:pageshadow="2"
     inkscape:window-width="1920"
     inkscape:window-height="1017"
     id="namedview39"
     showgrid="false"
     inkscape:zoom="1.5892256"
     inkscape:cx="71.199034"
     inkscape:cy="178.27417"
     inkscape:window-x="-8"
     inkscape:window-y="-8"
     inkscape:window-maximized="1"
     inkscape:current-layer="Layer_1" /><g
     id="g6"><g
       id="g4"><path
         d="M283.598,93.401c0-25.374-18.374-46.539-42.515-50.886C236.735,18.374,215.571,0,190.197,0    c-17.099,0-32.279,8.349-41.697,21.179C139.082,8.349,123.902,0,106.803,0C81.429,0,60.265,18.374,55.917,42.514    C31.776,46.862,13.402,68.027,13.402,93.4c0,8.132,2.946,22.468,10.91,30.811c-6.834,8.766-10.91,19.783-10.91,31.734    c0,18.066,9.436,34.556,24.33,43.863c-2.295,5.915-3.482,12.231-3.482,18.682c0,17.879,9.402,34.527,24.377,43.889    C61.843,281.948,78.983,297,99.357,297c15.484,0,37.558-16.716,49.143-26.492C160.085,280.284,182.159,297,197.643,297    c20.374,0,37.514-15.052,40.73-34.62c14.975-9.362,24.377-26.01,24.377-43.889c0-6.452-1.187-12.767-3.482-18.682    c14.895-9.307,24.33-25.797,24.33-43.863c0-11.951-4.076-22.968-10.91-31.734C280.651,115.869,283.598,101.532,283.598,93.401z     M138.492,252.725c-13.887,12.164-31.792,24.26-39.136,24.26c-11.554,0-21.089-9.4-21.255-20.955    c-0.001-0.045-0.01-0.089-0.011-0.134c0.423-11.191,9.629-20.298,20.914-20.46c5.525-0.079,9.942-4.623,9.863-10.15    c-0.078-5.478-4.543-9.864-10.003-9.864c-0.049,0-0.098,0-0.147,0.001c-16.184,0.232-30.187,9.934-36.735,23.745    c-4.871-5.667-7.719-12.984-7.719-20.678c0-6.31,1.85-12.404,5.351-17.623c1.725-2.572,2.163-5.797,1.184-8.735    c-0.978-2.938-3.261-5.258-6.183-6.283c-12.68-4.448-21.2-16.465-21.2-29.904c0-17.474,14.216-31.69,31.69-31.69    s31.689,14.216,31.689,31.69c0,5.526,4.481,10.007,10.007,10.007s10.007-4.481,10.007-10.007c0-28.51-23.195-51.704-51.703-51.704    c-9.31,0-18.056,2.476-25.611,6.801c-2.816-2.395-6.078-11.474-6.078-17.642c0-17.474,14.216-31.69,31.69-31.69    c5.526,0,10.007-4.481,10.007-10.007c0-17.474,14.215-31.689,31.689-31.689s31.69,14.215,31.69,31.689V252.725z M190.198,165.952    c5.526,0,10.007-4.481,10.007-10.007c0-17.474,14.215-31.69,31.689-31.69s31.69,14.216,31.69,31.69    c0,13.439-8.52,25.457-21.2,29.904c-2.922,1.025-5.205,3.345-6.183,6.283c-0.978,2.938-0.54,6.163,1.184,8.735    c3.501,5.22,5.351,11.313,5.351,17.623c0,7.695-2.848,15.012-7.719,20.679c-6.547-13.811-20.551-23.513-36.735-23.745    c-0.049-0.001-0.098-0.001-0.147-0.001c-5.46,0-9.925,4.387-10.003,9.864c-0.079,5.526,4.337,10.071,9.863,10.15    c11.289,0.161,20.496,9.272,20.915,20.466c-0.001,0.043-0.01,0.085-0.011,0.128c-0.165,11.554-9.7,20.955-21.255,20.955    c-7.344,0-25.25-12.098-39.136-24.26V51.703c0-17.474,14.216-31.689,31.69-31.689s31.689,14.215,31.689,31.689    c0,5.526,4.481,10.007,10.007,10.007c17.474,0,31.69,14.216,31.69,31.69c-0.001,6.168-3.263,15.247-6.078,17.642    c-7.554-4.325-16.301-6.801-25.612-6.801c-28.509,0-51.703,23.195-51.703,51.704C180.191,161.471,184.672,165.952,190.198,165.952    z"
         id="path2" /></g></g><g
     id="g8" /><g
     id="g10" /><g
     id="g12" /><g
     id="g14" /><g
     id="g16" /><g
     id="g18" /><g
     id="g20" /><g
     id="g22" /><g
     id="g24" /><g
     id="g26" /><g
     id="g28" /><g
     id="g30" /><g
     id="g32" /><g
     id="g34" /><g
     id="g36" /><path
     style="fill:#ffffff;fill-opacity:1;stroke:#ffffff;stroke-width:0;stroke-linecap:square;stroke-linejoin:round;stroke-miterlimit:4;stroke-dasharray:none;stroke-dashoffset:0;stroke-opacity:1;opacity:1"
     d="M 87.746102,294.76057 C 75.692973,290.81856 65.068348,280.69329 61.401849,269.65449 59.792514,264.80924 57.259214,261.22003 51.479707,255.59668 42.743682,247.0967 37.709359,237.93361 35.65701,226.79743 c -1.342644,-7.28527 -0.681415,-17.43263 1.514141,-23.23635 0.977141,-2.58297 0.165682,-3.87181 -6.451486,-10.24698 -10.434961,-10.05332 -15.398641,-20.73895 -16.133015,-34.7306 -0.600111,-11.43362 1.51526,-20.23861 6.862449,-28.56417 l 3.059284,-4.76331 -4.766268,-9.64388 c -4.56032,-9.22719 -4.766268,-10.19049 -4.766268,-22.293906 0,-11.615509 0.328627,-13.34375 4.018477,-21.133079 6.463236,-13.643988 18.223257,-23.797481 32.274834,-27.865791 4.258571,-1.23297 5.182552,-2.155199 6.468086,-6.455817 4.261433,-14.256166 14.409163,-26.004009 28.039437,-32.4607481 7.782568,-3.6866476 9.522261,-4.0182157 21.067809,-4.0153141 11.5352,0.00289 13.29222,0.3380325 21.06781,4.0184769 4.88355,2.311544 11.08956,6.6218083 14.62585,10.1580993 l 6.14279,6.142786 5.30894,-5.455634 c 26.8882,-27.631169 72.96108,-16.41250479 84.94935,20.685016 1.52072,4.70583 2.78158,6.606991 4.38181,6.606991 1.23569,0 6.25564,2.005578 11.15542,4.45684 16.57084,8.290049 26.64768,23.260615 27.68185,41.125258 0.70971,12.259842 -1.19404,21.439012 -6.02698,29.059762 l -3.64489,5.74739 4.64301,9.04953 c 4.5308,8.83082 4.64301,9.38773 4.64301,23.04372 0,12.90039 -0.28719,14.58437 -3.67431,21.54504 -2.18657,4.49351 -6.77259,10.60819 -11.32627,15.1017 l -7.65196,7.55085 1.47181,5.66313 c 4.65881,17.92579 -1.49742,37.49168 -15.98444,50.8022 -4.98672,4.58174 -7.47503,7.99742 -8.56337,11.75487 -4.69408,16.20617 -24.47481,29.55367 -40.91278,27.60683 -8.78599,-1.04057 -22.11074,-7.70462 -35.27644,-17.64267 -9.72333,-7.33958 -11.45576,-8.22302 -13.36039,-6.81297 -24.14602,17.87593 -34.9954,23.60041 -46.20376,24.37854 -4.179466,0.29015 -9.531283,-0.22721 -12.544448,-1.21267 z m 21.999048,-20.99248 c 4.23903,-2.11827 12.39945,-7.39011 18.13427,-11.7152 l 10.42694,-7.8638 0.35477,-103.12061 C 138.92284,75.001702 138.62788,46.528887 137.53686,42.539122 134.14839,30.147841 123.29948,21.16909 110.30579,20.002204 91.63317,18.325327 77.903879,29.392611 74.857769,48.577119 73.377866,57.897603 70.598156,61.161864 64.14112,61.161864 c -11.224844,0 -22.53627,7.435393 -27.857578,18.311754 -2.951071,6.031772 -3.313714,8.03587 -2.786766,15.400662 0.722966,10.1044 3.885274,17.26293 7.048246,15.95515 12.14975,-5.02352 16.325505,-5.86529 26.679293,-5.37813 17.634341,0.82972 32.545533,9.47068 41.139985,23.84043 4.25416,7.11287 7.91875,19.02998 7.91875,25.75147 0,5.95745 -3.71075,9.81697 -9.43856,9.81697 -5.74047,0 -9.438558,-3.86211 -9.438558,-9.85719 0,-16.64949 -14.827623,-30.95213 -32.023577,-30.88975 -18.526492,0.0672 -32.156065,13.67335 -32.118694,32.06346 0.02624,12.90931 6.633677,23.19352 18.809552,29.27629 9.526947,4.75942 10.492777,7.86934 5.614196,18.07738 -4.996777,10.45536 -4.983078,20.18144 0.0423,30.02586 l 3.524836,6.90495 2.030145,-3.12953 c 7.378922,-11.3748 19.060578,-19.32716 30.722324,-20.91444 7.201186,-0.98013 11.403776,0.84903 13.482876,5.86842 1.15911,2.79833 1.0479,4.23736 -0.56914,7.36437 -1.9789,3.82677 -2.95564,4.28504 -12.355045,5.79675 -6.291767,1.0119 -14.000094,8.40057 -16.09775,15.43017 -2.864641,9.59991 2.194942,19.94035 11.917458,24.3561 7.114399,3.23119 10.470127,2.97727 19.359737,-1.46492 z m 96.26429,2.15115 c 9.09568,-3.80042 14.74934,-14.35967 12.91728,-24.12538 -1.58215,-8.43352 -11.8429,-16.9625 -20.40667,-16.9625 -8.55282,0 -12.47179,-11.10894 -5.78467,-16.3976 2.83974,-2.24587 4.53334,-2.6117 9.43731,-2.03849 11.94441,1.39611 25.58657,10.36535 30.76513,20.22696 l 1.93171,3.67858 2.34419,-3.04934 c 3.81814,-4.96669 6.52628,-14.68446 5.90221,-21.17929 -0.31175,-3.24445 -2.09798,-9.24348 -3.96939,-13.3312 -4.26155,-9.30842 -3.19114,-13.06802 4.78858,-16.81893 13.00382,-6.11251 19.55584,-16.25051 19.57716,-30.29189 0.0407,-26.80235 -30.33685,-41.22446 -52.01093,-24.69283 -5.41173,4.12774 -10.44341,13.47366 -11.5558,21.46394 -1.50755,10.82873 -6.01863,14.92513 -13.17273,11.9618 -5.33904,-2.2115 -6.87593,-7.1157 -5.20417,-16.60644 2.91815,-16.56663 13.83854,-30.85175 29.01346,-37.95296 6.63249,-3.10371 10.29641,-3.94555 18.94188,-4.35218 10.28515,-0.48375 15.89825,0.64077 26.76543,5.36216 3.32386,1.4441 7.17571,-7.95675 7.19522,-17.560684 0.0336,-16.539038 -11.34573,-29.698701 -27.3102,-31.582921 -10.56809,-1.247309 -14.14664,-4.639357 -14.20716,-13.46676 -0.0618,-9.013055 -7.68023,-20.325323 -16.87067,-25.050519 -15.77429,-8.110231 -35.18518,-1.696477 -43.83365,14.483537 l -2.82101,5.27768 -0.34239,105.292417 -0.34241,105.29243 11.03944,8.31783 c 12.73216,9.59325 24.33521,15.80283 29.52873,15.80283 1.98817,0 5.44602,-0.76511 7.68412,-1.70025 z"
     id="path4520"
     inkscape:connector-curvature="0" /></svg>