<?xml version="1.0" encoding="UTF-8" standalone="no"?>
<!-- Generator: Adobe Illustrator 18.1.1, SVG Export Plug-In . SVG Version: 6.00 Build 0)  -->

<svg
   xmlns:dc="http://purl.org/dc/elements/1.1/"
   xmlns:cc="http://creativecommons.org/ns#"
   xmlns:rdf="http://www.w3.org/1999/02/22-rdf-syntax-ns#"
   xmlns:svg="http://www.w3.org/2000/svg"
   xmlns="http://www.w3.org/2000/svg"
   xmlns:sodipodi="http://sodipodi.sourceforge.net/DTD/sodipodi-0.dtd"
   xmlns:inkscape="http://www.inkscape.org/namespaces/inkscape"
   version="1.1"
   id="Capa_1"
   x="0px"
   y="0px"
   viewBox="0 0 174.248 174.248"
   style="enable-background:new 0 0 174.248 174.248;"
   xml:space="preserve"
   sodipodi:docname="authors-gear.svg"
   inkscape:version="0.92.1 r15371"><metadata
     id="metadata43"><rdf:RDF><cc:Work
         rdf:about=""><dc:format>image/svg+xml</dc:format><dc:type
           rdf:resource="http://purl.org/dc/dcmitype/StillImage" /><dc:title></dc:title></cc:Work></rdf:RDF></metadata><defs
     id="defs41" /><sodipodi:namedview
     pagecolor="#ffffff"
     bordercolor="#666666"
     borderopacity="1"
     objecttolerance="10"
     gridtolerance="10"
     guidetolerance="10"
     inkscape:pageopacity="0"
     inkscape:pageshadow="2"
     inkscape:window-width="1920"
     inkscape:window-height="1017"
     id="namedview39"
     showgrid="false"
     inkscape:zoom="1.3543914"
     inkscape:cx="87.124001"
     inkscape:cy="87.124001"
     inkscape:window-x="-8"
     inkscape:window-y="-8"
     inkscape:window-maximized="1"
     inkscape:current-layer="Capa_1" /><g
     id="g6"><path
       d="M173.145,73.91c-0.413-2.722-2.29-4.993-4.881-5.912l-13.727-4.881c-0.812-2.3-1.733-4.536-2.754-6.699l6.247-13.146   c1.179-2.479,0.899-5.411-0.729-7.628c-5.265-7.161-11.556-13.452-18.698-18.693c-2.219-1.629-5.141-1.906-7.625-0.724   l-13.138,6.242c-2.163-1.021-4.402-1.94-6.704-2.752l-4.883-13.729c-0.919-2.586-3.184-4.458-5.9-4.876   c-9.65-1.483-16.792-1.483-26.457,0c-2.713,0.418-4.981,2.29-5.9,4.876l-4.883,13.729c-2.302,0.812-4.541,1.731-6.702,2.752   l-13.143-6.242c-2.479-1.181-5.406-0.904-7.623,0.724c-7.142,5.241-13.433,11.532-18.698,18.693   c-1.629,2.217-1.908,5.148-0.729,7.628l6.247,13.146c-1.021,2.159-1.94,4.4-2.754,6.699L5.982,68.003   c-2.589,0.919-4.463,3.189-4.879,5.907c-0.749,4.92-1.099,9.115-1.099,13.219c0,4.098,0.35,8.299,1.099,13.219   c0.413,2.722,2.29,4.993,4.881,5.912l13.727,4.881c0.814,2.304,1.736,4.541,2.754,6.704l-6.247,13.141   c-1.179,2.479-0.899,5.411,0.727,7.623c5.258,7.156,11.549,13.447,18.7,18.698c2.217,1.629,5.144,1.911,7.625,0.724l13.138-6.242   c2.163,1.021,4.402,1.94,6.704,2.752l4.883,13.729c0.919,2.586,3.184,4.458,5.9,4.876c4.828,0.744,9.154,1.104,13.228,1.104   c4.074,0,8.401-0.36,13.228-1.104c2.715-0.418,4.981-2.29,5.9-4.876l4.883-13.729c2.302-0.812,4.541-1.731,6.704-2.752   l13.138,6.242c2.484,1.186,5.411,0.904,7.628-0.724c7.159-5.26,13.45-11.551,18.698-18.698c1.626-2.212,1.906-5.144,0.727-7.623   l-6.247-13.141c1.021-2.163,1.942-4.405,2.754-6.704l13.727-4.881c2.591-0.919,4.468-3.189,4.881-5.912   c0.749-4.92,1.099-9.12,1.099-13.219S173.894,78.829,173.145,73.91z M158.949,93.72l-12.878,4.58   c-2.251,0.797-3.982,2.625-4.66,4.92c-1.15,3.889-2.664,7.569-4.504,10.943c-1.142,2.1-1.213,4.619-0.187,6.777l5.841,12.285   c-2.822,3.389-5.943,6.515-9.337,9.334l-12.283-5.834c-2.161-1.036-4.672-0.953-6.775,0.185c-3.379,1.838-7.061,3.35-10.953,4.502   c-2.29,0.676-4.118,2.406-4.917,4.657l-4.582,12.883c-4.677,0.476-8.503,0.476-13.18,0l-4.582-12.883   c-0.8-2.246-2.628-3.982-4.917-4.657c-3.894-1.152-7.579-2.664-10.953-4.502c-2.103-1.147-4.619-1.22-6.775-0.185l-12.283,5.839   c-3.391-2.825-6.512-5.946-9.337-9.339l5.841-12.285c1.026-2.159,0.955-4.677-0.187-6.777c-1.835-3.364-3.35-7.049-4.504-10.948   c-0.678-2.29-2.411-4.118-4.66-4.915l-12.878-4.58c-0.243-2.343-0.36-4.502-0.36-6.592s0.117-4.244,0.36-6.587l12.881-4.584   c2.248-0.797,3.979-2.625,4.657-4.915c1.152-3.889,2.667-7.574,4.504-10.953c1.142-2.095,1.213-4.619,0.187-6.772l-5.841-12.285   c2.827-3.393,5.948-6.519,9.337-9.339l12.288,5.839c2.151,1.036,4.677,0.953,6.775-0.185c3.372-1.838,7.054-3.35,10.948-4.502   c2.29-0.676,4.118-2.411,4.917-4.657l4.582-12.883c4.633-0.481,8.466-0.481,13.18,0l4.582,12.883   c0.8,2.246,2.628,3.982,4.917,4.657c3.894,1.152,7.579,2.664,10.953,4.502c2.103,1.147,4.614,1.22,6.775,0.185l12.283-5.839   c3.389,2.82,6.51,5.946,9.337,9.339l-5.841,12.285c-1.026,2.154-0.955,4.677,0.187,6.772c1.843,3.389,3.357,7.069,4.504,10.948   c0.678,2.295,2.409,4.123,4.66,4.92l12.878,4.58c0.243,2.343,0.36,4.502,0.36,6.592S159.192,91.377,158.949,93.72z"
       id="path2" /><path
       d="M87.124,50.802c-19.062,0-34.571,15.508-34.571,34.571s15.508,34.571,34.571,34.571s34.571-15.508,34.571-34.571   S106.186,50.802,87.124,50.802z M87.124,105.009c-10.827,0-19.636-8.809-19.636-19.636s8.809-19.636,19.636-19.636   s19.636,8.809,19.636,19.636S97.951,105.009,87.124,105.009z"
       id="path4" /></g><g
     id="g8" /><g
     id="g10" /><g
     id="g12" /><g
     id="g14" /><g
     id="g16" /><g
     id="g18" /><g
     id="g20" /><g
     id="g22" /><g
     id="g24" /><g
     id="g26" /><g
     id="g28" /><g
     id="g30" /><g
     id="g32" /><g
     id="g34" /><g
     id="g36" /><path
     style="opacity:1;fill:#ffffff;fill-opacity:1;stroke:#ffffff;stroke-width:0;stroke-linecap:square;stroke-linejoin:round;stroke-miterlimit:4;stroke-dasharray:none;stroke-dashoffset:0;stroke-opacity:1"
     d="M 76.520832,173.25376 C 70.342876,172.27015 69.466202,171.327 66.27642,162.23253 l -2.839603,-8.09607 -3.700595,-1.25787 -3.700596,-1.25787 -7.304505,3.41341 c -4.017478,1.87738 -8.00354,3.41218 -8.857916,3.41066 -2.661732,-0.004 -6.451197,-2.84268 -14.188232,-10.62563 -8.021124,-8.06873 -10.221502,-11.33915 -9.680547,-14.38822 0.188598,-1.06303 1.777313,-5.0041 3.530478,-8.75796 l 3.187574,-6.82518 -1.445961,-3.48896 -1.445961,-3.48895 -8.106348,-2.97596 C 0.82182143,103.8915 0.66254975,103.59242 0.70295468,87.197834 0.74463008,70.287793 0.86046985,70.093299 13.498047,65.714996 c 5.915908,-2.049572 6.249253,-2.284922 7.567974,-5.343162 0.758717,-1.759534 1.379484,-3.611038 1.379484,-4.114453 0,-0.503415 -1.495136,-3.987223 -3.322525,-7.741796 -1.827389,-3.754572 -3.322526,-7.588059 -3.322526,-8.518861 0,-2.420728 2.986432,-6.581153 9.480087,-13.206797 7.112312,-7.256875 11.911226,-10.841805 14.513221,-10.841805 1.107957,0 5.289851,1.540649 9.293097,3.423665 l 7.27863,3.423664 3.528915,-1.446517 c 3.485011,-1.428519 3.558372,-1.528525 5.89658,-8.038282 1.302215,-3.6254719 2.699884,-7.3233542 3.10593,-8.2175161 1.35362,-2.9808321 4.807916,-4.0499613 14.40156,-4.4573855 10.652083,-0.45237434 18.516816,0.5849463 20.656336,2.7244758 0.82275,0.8227499 2.7099,4.896175 4.19366,9.0520558 2.69372,7.544852 2.7029,7.558261 6.14277,8.969949 l 3.44503,1.413802 7.43032,-3.423955 c 4.08669,-1.883176 8.366,-3.423956 9.50959,-3.423956 5.03853,0 23.6237,18.585163 23.6237,23.623696 0,1.143594 -1.54078,5.42291 -3.42396,9.509591 l -3.42395,7.430329 1.40891,3.433086 c 1.40583,3.425612 1.4253,3.438922 8.94374,6.113811 4.14416,1.474398 8.21979,3.366916 9.05695,4.205594 2.1972,2.201185 3.21611,9.983296 2.71728,20.75383 -0.4093,8.837689 -1.39194,12.618351 -3.64091,14.008291 -0.50831,0.31415 -4.2319,1.76713 -8.27465,3.22885 -7.32549,2.64863 -7.35532,2.6695 -8.7806,6.14248 l -1.43014,3.48483 3.42367,7.27863 c 1.88301,4.00325 3.42366,8.18514 3.42366,9.2931 0,2.60199 -3.58493,7.40091 -10.84181,14.51322 -6.62564,6.49365 -10.78607,9.48009 -13.20679,9.48009 -0.9308,0 -4.76429,-1.49514 -8.51886,-3.32253 -3.75457,-1.82739 -7.23838,-3.32252 -7.7418,-3.32252 -0.50342,0 -2.35492,0.62076 -4.11445,1.37948 -3.05824,1.31872 -3.29359,1.65207 -5.34317,7.56797 -3.06179,8.83759 -3.89428,10.22544 -6.88257,11.47403 -3.13851,1.31135 -19.221571,1.97042 -25.129598,1.02978 z m 17.663447,-14.97529 c 0.327453,-0.51614 1.452637,-3.49584 2.500407,-6.62156 2.434835,-7.26366 3.890284,-9.04852 8.648734,-10.6062 2.1268,-0.6962 5.43407,-2.05052 7.34948,-3.00958 1.91541,-0.95907 4.13467,-1.74375 4.93169,-1.74375 0.79701,0 4.69676,1.50733 8.66609,3.34962 l 7.21697,3.34963 4.79236,-4.79237 4.79237,-4.79236 -3.57743,-7.45898 c -4.04076,-8.42502 -4.08522,-7.10968 0.62374,-18.45076 1.43321,-3.45174 3.24925,-6.79946 4.03564,-7.4394 0.78639,-0.639929 4.41988,-2.233095 8.07443,-3.540354 5.15211,-1.84296 6.74266,-2.742531 7.08113,-4.004861 0.78447,-2.925794 0.48143,-10.544242 -0.46626,-11.721877 -0.5076,-0.630778 -3.71477,-2.098471 -7.12704,-3.261539 -7.14326,-2.434791 -9.30209,-3.891394 -10.00811,-6.752659 -0.27715,-1.123161 -1.64349,-4.575822 -3.03633,-7.672581 -1.39284,-3.096759 -2.53296,-6.087032 -2.5336,-6.645051 -6.4e-4,-0.558019 1.55921,-4.269314 3.46633,-8.247323 l 3.4675,-7.232742 -4.86579,-4.865789 -4.86578,-4.865789 -7.32281,3.423049 c -4.02753,1.882676 -7.75831,3.423048 -8.2906,3.423048 -0.5323,0 -3.50153,-1.139597 -6.59829,-2.532437 -3.09676,-1.392841 -6.51971,-2.751733 -7.60656,-3.01976 -2.95395,-0.72847 -4.127824,-2.449491 -6.826896,-10.008916 -2.728982,-7.643193 -3.073099,-7.939785 -9.286318,-8.003759 -6.808792,-0.0701 -6.981113,0.06293 -9.642773,7.444463 -1.314916,3.646624 -2.922671,7.283933 -3.572793,8.08291 -0.650123,0.798975 -4.006191,2.625307 -7.457926,4.058514 -11.341075,4.708968 -10.025741,4.664502 -18.450759,0.623744 l -7.45898,-3.577432 -4.805096,4.805096 -4.805095,4.805096 3.362355,7.244399 c 1.849295,3.98442 3.362355,7.878433 3.362355,8.653362 0,0.774929 -0.784688,2.976117 -1.743751,4.891528 -0.959064,1.915411 -2.313377,5.222679 -3.009585,7.349486 -1.57845,4.821911 -3.075897,6.004066 -11.35823,8.966732 l -6.619084,2.367706 -0.505881,3.373456 c -0.278234,1.855394 -0.286369,4.969486 -0.01807,6.9202 l 0.487802,3.546751 6.930412,2.388889 c 3.811727,1.313889 7.565732,3.085806 8.342233,3.93759 1.336063,1.4656 6.430277,13.00243 7.256957,16.43478 0.236815,0.98325 -0.933456,4.50992 -3.048203,9.18593 l -3.432593,7.58995 4.694404,4.6944 4.694405,4.69441 7.58995,-3.43259 c 4.676005,-2.11475 8.202679,-3.28502 9.185926,-3.04821 3.814395,0.9187 15.022705,5.96398 16.460103,7.40932 0.865717,0.87049 2.648961,4.63774 3.962761,8.37165 2.095783,5.95636 2.627136,6.83107 4.332684,7.13248 3.390652,0.59919 11.403424,-0.17972 12.031419,-1.16956 z"
     id="path4520"
     inkscape:connector-curvature="0" /><path
     style="opacity:1;fill:#ffffff;fill-opacity:1;stroke:#ffffff;stroke-width:0;stroke-linecap:square;stroke-linejoin:round;stroke-miterlimit:4;stroke-dasharray:none;stroke-dashoffset:0;stroke-opacity:1"
     d="M 76.906829,117.92198 C 64.669458,113.89402 55.431272,103.04702 53.303882,90.20863 51.224818,77.661878 57.705151,63.779536 69.03488,56.509269 c 12.913971,-8.286873 31.02307,-6.32332 41.9025,4.543447 16.97529,16.955538 12.23739,44.639914 -9.43557,55.133584 -5.12949,2.48362 -6.201736,2.72482 -12.974965,2.91877 -5.686994,0.16284 -8.356791,-0.10899 -11.620016,-1.18309 z M 95.9606,103.23622 c 3.59771,-1.83716 8.14413,-6.689669 9.74192,-10.397798 1.50108,-3.483711 1.50108,-11.489159 0,-14.97287 C 104.11281,74.176185 99.563477,69.30726 96.014049,67.496478 91.854258,65.37431 85.550388,64.937976 80.980367,66.455893 63.621788,72.221488 62.790349,97.019409 79.726742,103.84567 c 4.650892,1.87455 11.902563,1.60231 16.233858,-0.60945 z"
     id="path4522"
     inkscape:connector-curvature="0" /></svg>