<?xml version="1.0" encoding="UTF-8" standalone="no"?>
<!-- Generator: Adobe Illustrator 16.0.0, SVG Export Plug-In . SVG Version: 6.00 Build 0)  -->

<svg
   xmlns:dc="http://purl.org/dc/elements/1.1/"
   xmlns:cc="http://creativecommons.org/ns#"
   xmlns:rdf="http://www.w3.org/1999/02/22-rdf-syntax-ns#"
   xmlns:svg="http://www.w3.org/2000/svg"
   xmlns="http://www.w3.org/2000/svg"
   xmlns:sodipodi="http://sodipodi.sourceforge.net/DTD/sodipodi-0.dtd"
   xmlns:inkscape="http://www.inkscape.org/namespaces/inkscape"
   version="1.1"
   id="Capa_1"
   x="0px"
   y="0px"
   width="512px"
   height="512px"
   viewBox="0 0 512 512"
   style="enable-background:new 0 0 512 512;"
   xml:space="preserve"
   sodipodi:docname="facebook.svg"
   inkscape:version="0.92.1 r15371"><metadata
     id="metadata43"><rdf:RDF><cc:Work
         rdf:about=""><dc:format>image/svg+xml</dc:format><dc:type
           rdf:resource="http://purl.org/dc/dcmitype/StillImage" /><dc:title></dc:title></cc:Work></rdf:RDF></metadata><defs
     id="defs41" /><sodipodi:namedview
     pagecolor="#ffffff"
     bordercolor="#666666"
     borderopacity="1"
     objecttolerance="10"
     gridtolerance="10"
     guidetolerance="10"
     inkscape:pageopacity="0"
     inkscape:pageshadow="2"
     inkscape:window-width="1920"
     inkscape:window-height="1017"
     id="namedview39"
     showgrid="false"
     inkscape:zoom="0.4609375"
     inkscape:cx="256"
     inkscape:cy="256"
     inkscape:window-x="-8"
     inkscape:window-y="-8"
     inkscape:window-maximized="1"
     inkscape:current-layer="Capa_1" /><g
     id="g6"><path
       d="M256,0C114.609,0,0,114.609,0,256c0,141.391,114.609,256,256,256c141.391,0,256-114.609,256-256   C512,114.609,397.391,0,256,0z M256,472c-119.297,0-216-96.703-216-216S136.703,40,256,40s216,96.703,216,216S375.297,472,256,472z   "
       id="path2" /><path
       d="M316.75,216.812h-44.531v-32.5c0-9.969,10.312-12.281,15.125-12.281c4.781,0,28.767,0,28.767,0v-43.859L283.141,128   c-44.983,0-55.25,32.703-55.25,53.672v35.141H195.25V262h32.641c0,58.016,0,122,0,122h44.328c0,0,0-64.641,0-122h37.656   L316.75,216.812z"
       id="path4" /></g><g
     id="g8" /><g
     id="g10" /><g
     id="g12" /><g
     id="g14" /><g
     id="g16" /><g
     id="g18" /><g
     id="g20" /><g
     id="g22" /><g
     id="g24" /><g
     id="g26" /><g
     id="g28" /><g
     id="g30" /><g
     id="g32" /><g
     id="g34" /><g
     id="g36" /><path
     style="opacity:1;fill:#ffffff;fill-opacity:1;stroke:#ffffff;stroke-width:0;stroke-linecap:square;stroke-linejoin:round;stroke-miterlimit:4;stroke-dasharray:none;stroke-dashoffset:0;stroke-opacity:1"
     d="m 228.66441,322.38644 v -60.74576 h -16.27119 -16.27119 v -21.69492 -21.69491 h 16.04811 16.0481 l 0.84468,-26.57627 c 0.69388,-21.832 1.66646,-28.12542 5.44812,-35.25424 10.97303,-20.68527 24.8335,-27.11865 58.42613,-27.11865 h 22.5069 v 20.38755 20.38754 l -18.10938,0.765 c -24.5859,1.03859 -25.28045,1.78216 -25.28045,27.06454 v 20.34453 h 21.69491 c 11.93221,0 21.69492,0.79697 21.69492,1.77104 0,0.97408 -0.99218,7.56391 -2.20484,14.64407 -1.21266,7.08016 -2.72131,16.0459 -3.35254,19.92387 l -1.14771,7.05085 h -18.34237 -18.34237 v 60.74576 60.74576 h -21.69492 -21.69491 z"
     id="path4520"
     inkscape:connector-curvature="0" /><path
     style="opacity:1;fill:#ffffff;fill-opacity:1;stroke:#ffffff;stroke-width:0;stroke-linecap:square;stroke-linejoin:round;stroke-miterlimit:4;stroke-dasharray:none;stroke-dashoffset:0;stroke-opacity:1"
     d="M 222.60808,508.96141 C 178.92976,502.80146 135.96829,484.80121 100.66441,457.86876 84.752037,445.72961 55.93958,415.369 45.894274,400.15575 26.287872,370.46255 13.689095,341.02513 5.9787707,306.89195 0.76217839,283.79841 0.81272602,229.68203 6.0737247,205.2339 31.736383,85.978218 135.3797,1.3016949 255.68492,1.3016949 c 68.27575,0 131.61455,26.3189201 180.15452,74.8588801 143.44567,143.445685 70.05713,387.083635 -129.4256,429.671955 -19.14275,4.08684 -64.89984,5.79519 -83.80576,3.12888 z m 89.58175,-43.28821 c 36.67597,-10.06395 69.62567,-29.26063 96.70725,-56.34222 62.24701,-62.247 80.71507,-153.20517 47.78184,-235.3331 C 421.37049,85.946791 327.51108,29.512363 234.38312,40.339065 c -52.4987,6.103299 -95.58471,26.634464 -131.7141,62.763855 -27.384583,27.38458 -46.352127,60.13801 -56.631436,97.792 -4.404072,16.13249 -5.018632,23.19281 -4.909871,56.40677 0.113833,34.76467 0.617871,39.61256 5.977374,57.49153 23.970341,79.9636 83.885503,135.37085 166.590503,154.05655 21.21385,4.79288 75.87579,3.02995 98.49424,-3.17657 z"
     id="path4522"
     inkscape:connector-curvature="0" /></svg>