<?xml version="1.0" encoding="UTF-8" standalone="no"?>
<!-- Generator: Adobe Illustrator 19.0.0, SVG Export Plug-In . SVG Version: 6.00 Build 0)  -->

<svg
   xmlns:dc="http://purl.org/dc/elements/1.1/"
   xmlns:cc="http://creativecommons.org/ns#"
   xmlns:rdf="http://www.w3.org/1999/02/22-rdf-syntax-ns#"
   xmlns:svg="http://www.w3.org/2000/svg"
   xmlns="http://www.w3.org/2000/svg"
   xmlns:sodipodi="http://sodipodi.sourceforge.net/DTD/sodipodi-0.dtd"
   xmlns:inkscape="http://www.inkscape.org/namespaces/inkscape"
   version="1.1"
   id="Layer_1"
   x="0px"
   y="0px"
   viewBox="0 0 330 330"
   style="enable-background:new 0 0 330 330;"
   xml:space="preserve"
   sodipodi:docname="lang.svg"
   inkscape:version="0.92.1 r15371"><metadata
     id="metadata38"><rdf:RDF><cc:Work
         rdf:about=""><dc:format>image/svg+xml</dc:format><dc:type
           rdf:resource="http://purl.org/dc/dcmitype/StillImage" /><dc:title></dc:title></cc:Work></rdf:RDF></metadata><defs
     id="defs36" /><sodipodi:namedview
     pagecolor="#ffffff"
     bordercolor="#666666"
     borderopacity="1"
     objecttolerance="10"
     gridtolerance="10"
     guidetolerance="10"
     inkscape:pageopacity="0"
     inkscape:pageshadow="2"
     inkscape:window-width="1920"
     inkscape:window-height="1017"
     id="namedview34"
     showgrid="false"
     inkscape:zoom="0.71515152"
     inkscape:cx="165"
     inkscape:cy="165"
     inkscape:window-x="-8"
     inkscape:window-y="-8"
     inkscape:window-maximized="1"
     inkscape:current-layer="Layer_1" /><path
     id="XMLID_487_"
     d="M319.246,251.85C326.385,235.485,330,218.067,330,200c0-53.968-33.059-100.356-79.987-119.989  C229.957,31.88,182.602,0,130,0C58.318,0,0,58.318,0,130c0,18.065,3.615,35.483,10.753,51.849L0.222,242.431  c-0.836,4.809,0.721,9.724,4.172,13.175c2.837,2.837,6.662,4.394,10.605,4.394c0.854,0,1.714-0.073,2.57-0.222l60.586-10.533  c0.614,0.267,1.238,0.512,1.856,0.77C99.647,296.943,146.033,330,200,330c18.063,0,35.481-3.615,51.85-10.753l60.581,10.532  c0.856,0.149,1.716,0.222,2.57,0.222c3.942,0,7.768-1.556,10.605-4.394c3.452-3.452,5.008-8.367,4.172-13.176L319.246,251.85z   M33.429,226.571l7.679-44.168c0.536-3.083,0.094-6.258-1.264-9.078C33.312,159.762,30,145.186,30,130C30,74.86,74.86,30,130,30  c32.149,0,61.748,15.483,80.299,40.407C206.9,70.14,203.466,70,200,70c-71.683,0-130,58.318-130,130  c0,6.782,0.523,13.443,1.53,19.948L33.429,226.571z M288.894,252.402l7.678,44.169l-44.168-7.679  c-3.081-0.537-6.257-0.094-9.077,1.263C229.761,296.688,215.184,300,200,300c-55.141,0-100-44.86-100-100s44.859-100,100-100  s100,44.86,100,100c0,15.186-3.311,29.762-9.843,43.326C288.8,246.146,288.358,249.319,288.894,252.402z" /><g
     id="g3" /><g
     id="g5" /><g
     id="g7" /><g
     id="g9" /><g
     id="g11" /><g
     id="g13" /><g
     id="g15" /><g
     id="g17" /><g
     id="g19" /><g
     id="g21" /><g
     id="g23" /><g
     id="g25" /><g
     id="g27" /><g
     id="g29" /><g
     id="g31" /><path
     style="opacity:1;fill:#ffffff;fill-opacity:1;stroke:#ffffff;stroke-width:0;stroke-linecap:square;stroke-linejoin:round;stroke-miterlimit:4;stroke-dasharray:none;stroke-dashoffset:0;stroke-opacity:1"
     d="m 185.13559,328.50925 c -32.08571,-5.05342 -55.80121,-16.80034 -76.99162,-38.13601 -9.927285,-9.99535 -24.230876,-30.5958 -25.960155,-37.38858 -0.426351,-1.67477 -1.538992,-3.33812 -2.472535,-3.69635 -0.933542,-0.35824 -15.821141,1.80993 -33.083551,4.81816 -17.262412,3.00822 -32.959297,5.09687 -34.881966,4.64141 C 6.7033496,257.55344 2.1165704,252.75451 1.2491433,247.76578 0.83592859,245.3893 2.9647523,229.60169 5.9798625,212.6822 11.010041,184.45502 11.297772,181.52384 9.4708054,177.11912 3.6196201,163.01228 1.4266978,149.95723 1.469133,129.48305 1.5176555,106.07189 3.8542704,95.135123 12.95798,75.708312 19.841323,61.019643 25.030008,53.453435 36.711963,41.069947 52.504809,24.328698 71.619869,12.709684 95.240908,5.4933581 106.3865,2.0883341 109.6109,1.7390933 129.90254,1.7390933 c 20.29165,0 23.51604,0.3492408 34.66164,3.7542648 22.10651,6.7536329 38.64423,16.3233389 54.63622,31.6157739 10.91924,10.441578 19.55782,22.003919 25.91082,34.680458 3.95325,7.888159 5.21104,9.147959 13.0992,13.12022 12.43786,6.26337 19.9508,11.639332 30.90524,22.11458 24.19283,23.13452 37.93972,53.00278 39.61911,86.08154 0.89359,17.6011 -0.6485,29.58597 -6.08882,47.32098 l -3.79732,12.37899 3.90949,22.58646 c 7.36183,42.53172 7.34411,42.32986 4.09758,46.70111 -6.24033,8.40222 -6.55282,8.4181 -42.50405,2.1608 l -32.62091,-5.67767 -8.85127,3.33162 c -15.83456,5.96011 -42.47615,9.00567 -57.74388,6.60103 z m 37.27224,-30.50398 c 4.73384,-1.11632 12.59931,-3.62767 17.47882,-5.58078 l 8.87182,-3.55109 23.70042,4.15737 c 13.03524,2.28655 23.92591,3.93188 24.2015,3.65629 0.2756,-0.27559 -1.16694,-10.08676 -3.20564,-21.80258 -4.10695,-23.60152 -4.0082,-26.91417 1.24017,-41.60526 11.80792,-33.05235 4.82532,-71.93633 -17.50653,-97.48864 -21.38511,-24.46904 -45.55911,-35.76328 -76.82049,-35.891003 -28.24166,-0.115382 -51.00997,9.326303 -71.21583,29.532153 -20.01331,20.01333 -29.313087,42.3642 -29.313087,70.45049 0,16.96931 2.618897,28.5534 9.848537,43.5627 12.76395,26.49894 36.75525,46.52767 64.40694,53.76903 12.71277,3.32919 35.93814,3.7096 48.31337,0.79132 z M 52.995763,223.86267 c 6.92161,-1.19932 13.860862,-2.45211 15.420561,-2.78394 2.681863,-0.57058 2.836462,-1.64991 2.847703,-19.88128 0.01443,-23.40595 3.220206,-38.13293 12.414783,-57.0322 13.426098,-27.59706 34.34533,-48.160354 62.62298,-61.55747 14.54678,-6.891829 30.02244,-10.568394 48.27236,-11.4681 8.65202,-0.426537 15.73093,-1.076614 15.73093,-1.444614 0,-1.461967 -9.16651,-11.159771 -15.92121,-16.843989 C 167.05471,29.853004 129.40826,23.391222 95.291162,35.842421 64.813169,46.965512 40.751022,73.613041 32.676263,105.18504 c -5.182643,20.26395 -3.25919,45.37286 4.974283,64.93473 l 3.560626,8.45966 -3.581097,20.54716 c -1.969604,11.30092 -3.94411,22.34161 -4.387791,24.53485 -0.761766,3.76564 -0.584614,3.943 3.181021,3.18478 2.193242,-0.44161 9.650848,-1.78421 16.572458,-2.98355 z"
     id="path4515"
     inkscape:connector-curvature="0" /></svg>