<?xml version="1.0" encoding="UTF-8" standalone="no"?>
<!-- Generator: Adobe Illustrator 19.0.0, SVG Export Plug-In . SVG Version: 6.00 Build 0)  -->

<svg
   xmlns:dc="http://purl.org/dc/elements/1.1/"
   xmlns:cc="http://creativecommons.org/ns#"
   xmlns:rdf="http://www.w3.org/1999/02/22-rdf-syntax-ns#"
   xmlns:svg="http://www.w3.org/2000/svg"
   xmlns="http://www.w3.org/2000/svg"
   xmlns:sodipodi="http://sodipodi.sourceforge.net/DTD/sodipodi-0.dtd"
   xmlns:inkscape="http://www.inkscape.org/namespaces/inkscape"
   version="1.1"
   id="Layer_1"
   x="0px"
   y="0px"
   viewBox="0 0 330.001 330.001"
   style="enable-background:new 0 0 330.001 330.001;"
   xml:space="preserve"
   sodipodi:docname="mail.svg"
   inkscape:version="0.92.1 r15371"><metadata
     id="metadata38"><rdf:RDF><cc:Work
         rdf:about=""><dc:format>image/svg+xml</dc:format><dc:type
           rdf:resource="http://purl.org/dc/dcmitype/StillImage" /><dc:title></dc:title></cc:Work></rdf:RDF></metadata><defs
     id="defs36" /><sodipodi:namedview
     pagecolor="#ffffff"
     bordercolor="#666666"
     borderopacity="1"
     objecttolerance="10"
     gridtolerance="10"
     guidetolerance="10"
     inkscape:pageopacity="0"
     inkscape:pageshadow="2"
     inkscape:window-width="1920"
     inkscape:window-height="1017"
     id="namedview34"
     showgrid="false"
     inkscape:zoom="0.71514933"
     inkscape:cx="165.0005"
     inkscape:cy="165.0005"
     inkscape:window-x="-8"
     inkscape:window-y="-8"
     inkscape:window-maximized="1"
     inkscape:current-layer="Layer_1" /><path
     id="XMLID_20_"
     d="M165.001,0c-90.981,0-165,74.018-165,164.997c0,90.983,74.019,165.004,165,165.004c8.284,0,15-6.716,15-15  c0-8.284-6.716-15-15-15c-74.44,0-135-60.563-135-135.004C30,90.56,90.561,30,165.001,30s135,60.56,135,134.997v37.507  c0,12.407-10.096,22.5-22.504,22.5c-12.406,0-22.499-10.093-22.499-22.5v-37.507c0-49.626-40.372-90-89.997-90  c-49.626,0-89.999,40.374-89.999,90c0,49.63,40.373,90.007,89.999,90.007c25.927,0,49.323-11.026,65.762-28.63  c8.706,16.978,26.379,28.63,46.734,28.63c28.951,0,52.504-23.551,52.504-52.5v-37.507C330,74.018,255.982,0,165.001,0z   M165.001,225.004c-33.084,0-59.999-26.919-59.999-60.007c0-33.084,26.915-60,59.999-60c33.083,0,59.997,26.916,59.997,60  C224.998,198.085,198.083,225.004,165.001,225.004z" /><g
     id="g3" /><g
     id="g5" /><g
     id="g7" /><g
     id="g9" /><g
     id="g11" /><g
     id="g13" /><g
     id="g15" /><g
     id="g17" /><g
     id="g19" /><g
     id="g21" /><g
     id="g23" /><g
     id="g25" /><g
     id="g27" /><g
     id="g29" /><g
     id="g31" /><path
     style="opacity:1;fill:#ffffff;fill-opacity:1;stroke:#ffffff;stroke-width:0;stroke-linecap:square;stroke-linejoin:round;stroke-miterlimit:4;stroke-dasharray:none;stroke-dashoffset:0;stroke-opacity:1"
     d="m 143.88603,328.05617 c -13.60478,-1.89556 -30.83665,-6.75416 -43.8445,-12.36216 C 63.155579,299.79161 30.19983,266.82324 14.282104,229.90175 -19.869728,150.68587 13.205572,58.688064 90.051122,19.15285 179.70721,-26.973085 288.29905,17.535581 320.88767,113.7661 c 6.83299,20.17709 8.52728,35.02274 8.0241,70.30845 l -0.4489,31.47798 -4.54441,9.22388 c -8.72983,17.7191 -24.54401,28.01299 -44.39642,28.89886 -17.96745,0.80175 -32.7753,-6.19229 -43.48651,-20.53954 l -5.1226,-6.86151 -8.55572,6.91705 c -10.31383,8.33842 -24.89665,15.70593 -37.20357,18.79592 -12.03775,3.0224 -34.82284,2.04619 -47.58137,-2.0386 -25.934,-8.30305 -49.137128,-31.51808 -57.511691,-57.54122 -4.115452,-12.78837 -5.07834,-35.52846 -2.013843,-47.56 8.310484,-32.62783 33.392764,-58.164999 65.251954,-66.435365 13.52082,-3.509887 37.87484,-2.375928 51.17279,2.382683 25.48048,9.118069 46.12848,29.973922 55.12537,55.680302 2.80766,8.0222 3.28233,12.78184 4.04413,40.55097 0.93402,34.04667 1.61101,37.20587 9.26274,43.22472 9.60564,7.5558 22.09448,6.81201 30.73706,-1.83058 6.18856,-6.18855 7.54002,-12.48375 7.53579,-35.10174 -0.007,-35.90537 -3.78451,-55.99041 -14.74382,-78.38743 C 261.88792,54.769776 206.42554,24.168059 151.09352,30.256654 95.654131,36.357063 50.727997,73.950535 34.654413,127.69104 c -4.976304,16.63779 -6.223796,46.0123 -2.693908,63.43303 5.230341,25.81279 16.997777,48.15191 35.444681,67.28765 24.107483,25.00769 53.456844,39.13398 85.569854,41.18608 7.30617,0.46687 15.28717,1.66002 17.73557,2.65144 9.13075,3.69724 11.20987,16.16617 3.84872,23.0816 -2.9153,2.73878 -5.2014,3.3781 -12.91295,3.61113 -5.15376,0.15574 -13.14593,-0.24287 -17.76035,-0.8858 z m 31.61463,-103.51665 c 48.23495,-9.14756 66.61177,-67.62337 32.09798,-102.13716 -35.06265,-35.062652 -93.6707,-15.82517 -102.37754,33.60437 -4.32147,24.53335 9.7437,51.59436 32.68069,62.87673 13.37654,6.57974 24.16818,8.20314 37.59887,5.65606 z"
     id="path4515"
     inkscape:connector-curvature="0" /></svg>