<?xml version="1.0" encoding="UTF-8" standalone="no"?>
<!-- Generator: Adobe Illustrator 19.0.0, SVG Export Plug-In . SVG Version: 6.00 Build 0)  -->

<svg
   xmlns:dc="http://purl.org/dc/elements/1.1/"
   xmlns:cc="http://creativecommons.org/ns#"
   xmlns:rdf="http://www.w3.org/1999/02/22-rdf-syntax-ns#"
   xmlns:svg="http://www.w3.org/2000/svg"
   xmlns="http://www.w3.org/2000/svg"
   xmlns:sodipodi="http://sodipodi.sourceforge.net/DTD/sodipodi-0.dtd"
   xmlns:inkscape="http://www.inkscape.org/namespaces/inkscape"
   version="1.1"
   id="Layer_1"
   x="0px"
   y="0px"
   viewBox="0 0 511.999 511.999"
   style="enable-background:new 0 0 511.999 511.999;"
   xml:space="preserve"
   sodipodi:docname="mail_letter.svg"
   inkscape:version="0.92.1 r15371"><metadata
     id="metadata49"><rdf:RDF><cc:Work
         rdf:about=""><dc:format>image/svg+xml</dc:format><dc:type
           rdf:resource="http://purl.org/dc/dcmitype/StillImage" /><dc:title></dc:title></cc:Work></rdf:RDF></metadata><defs
     id="defs47" /><sodipodi:namedview
     pagecolor="#ffffff"
     bordercolor="#666666"
     borderopacity="1"
     objecttolerance="10"
     gridtolerance="10"
     guidetolerance="10"
     inkscape:pageopacity="0"
     inkscape:pageshadow="2"
     inkscape:window-width="1920"
     inkscape:window-height="1017"
     id="namedview45"
     showgrid="false"
     inkscape:zoom="0.46093841"
     inkscape:cx="255.9995"
     inkscape:cy="255.9995"
     inkscape:window-x="-8"
     inkscape:window-y="-8"
     inkscape:window-maximized="1"
     inkscape:current-layer="Layer_1" /><g
     id="g6"><g
       id="g4"><path
         d="M444.253,47.065H67.747c-37.355,0-67.745,30.391-67.745,67.745v282.379c0,37.355,30.39,67.745,67.745,67.745h376.506    c37.355,0,67.745-30.391,67.745-67.745V114.81C511.998,77.455,481.608,47.065,444.253,47.065z M470.634,397.189    c0,14.546-11.835,26.381-26.381,26.381H67.747c-14.546,0-26.381-11.835-26.381-26.381V114.81    c0-14.546,11.835-26.381,26.381-26.381h376.506c14.546,0,26.381,11.835,26.381,26.381V397.189z"
         id="path2" /></g></g><g
     id="g12"><g
       id="g10"><path
         d="M508.259,102.95c-6.549-9.357-19.443-11.633-28.804-5.083L255.999,254.284L32.544,97.866    c-9.357-6.551-22.253-4.274-28.803,5.083s-4.274,22.253,5.083,28.803L244.14,296.474c3.561,2.493,7.71,3.738,11.86,3.738    c4.149,0,8.299-1.246,11.86-3.738l235.316-164.721C512.533,125.203,514.809,112.307,508.259,102.95z"
         id="path8" /></g></g><g
     id="g14" /><g
     id="g16" /><g
     id="g18" /><g
     id="g20" /><g
     id="g22" /><g
     id="g24" /><g
     id="g26" /><g
     id="g28" /><g
     id="g30" /><g
     id="g32" /><g
     id="g34" /><g
     id="g36" /><g
     id="g38" /><g
     id="g40" /><g
     id="g42" /><path
     style="opacity:1;fill:#ffffff;fill-opacity:1;stroke:#ffffff;stroke-width:0;stroke-linecap:square;stroke-linejoin:round;stroke-miterlimit:4;stroke-dasharray:none;stroke-dashoffset:0;stroke-opacity:1"
     d="M 45.539119,459.98931 C 29.594518,454.14732 17.440317,442.99982 7.8658761,425.43645 L 1.9525385,414.58902 1.3403706,260.80833 C 0.65702097,89.146347 0.28821725,94.000429 15.532846,74.011353 21.225179,66.547447 28.021282,61.000872 37.463224,56.113082 l 13.681885,-7.08267 H 255.62559 460.10607 l 13.32128,6.656732 c 15.818,7.904343 26.92039,20.081511 32.91362,36.099883 4.21065,11.253983 4.35633,16.752413 4.35633,164.429423 0,149.58159 -0.095,153.03981 -4.52627,164.88363 -6.04007,16.14348 -21.63265,31.73606 -37.77613,37.77613 -11.95635,4.47344 -14.44529,4.52449 -213.2361,4.37341 -168.895604,-0.12844 -202.498109,-0.651 -209.619681,-3.26031 z M 457.98191,420.10055 c 14.17226,-8.64132 13.75884,-4.17209 13.13991,-142.04876 L 470.56179,153.29955 366.76688,225.9105 c -83.6607,58.52583 -105.13826,72.61095 -110.72009,72.61095 -5.5833,0 -27.0883,-14.11263 -110.98432,-72.83332 L 41.003309,152.8548 40.443158,276.69821 c -0.618969,136.84769 -0.79373,134.90754 12.904152,143.25892 7.062477,4.30587 10.414363,4.37835 202.43524,4.37835 189.83638,0 195.44657,-0.11759 202.19936,-4.23493 z M 363.97757,180.28439 c 57.97219,-40.56941 105.42547,-74.88177 105.45172,-76.24968 0.0263,-1.36792 -3.40316,-5.517061 -7.62095,-9.220324 l -7.66868,-6.733203 H 255.4901 56.840566 l -7.376257,7.376256 c -4.056941,4.056942 -7.327538,8.206081 -7.267994,9.220321 0.137285,2.33847 212.766755,150.75406 214.840265,149.95873 0.84534,-0.32424 48.9688,-33.78269 106.94099,-74.3521 z"
     id="path4526"
     inkscape:connector-curvature="0" /></svg>