<?xml version="1.0" encoding="UTF-8" standalone="no"?>
<!-- Generator: Adobe Illustrator 19.0.0, SVG Export Plug-In . SVG Version: 6.00 Build 0)  -->

<svg
   xmlns:dc="http://purl.org/dc/elements/1.1/"
   xmlns:cc="http://creativecommons.org/ns#"
   xmlns:rdf="http://www.w3.org/1999/02/22-rdf-syntax-ns#"
   xmlns:svg="http://www.w3.org/2000/svg"
   xmlns="http://www.w3.org/2000/svg"
   xmlns:sodipodi="http://sodipodi.sourceforge.net/DTD/sodipodi-0.dtd"
   xmlns:inkscape="http://www.inkscape.org/namespaces/inkscape"
   version="1.1"
   id="Layer_1"
   x="0px"
   y="0px"
   viewBox="0 0 330.036 330.036"
   style="enable-background:new 0 0 330.036 330.036;"
   xml:space="preserve"
   sodipodi:docname="phone.svg"
   inkscape:version="0.92.1 r15371"><metadata
     id="metadata41"><rdf:RDF><cc:Work
         rdf:about=""><dc:format>image/svg+xml</dc:format><dc:type
           rdf:resource="http://purl.org/dc/dcmitype/StillImage" /><dc:title></dc:title></cc:Work></rdf:RDF></metadata><defs
     id="defs39" /><sodipodi:namedview
     pagecolor="#ffffff"
     bordercolor="#666666"
     borderopacity="1"
     objecttolerance="10"
     gridtolerance="10"
     guidetolerance="10"
     inkscape:pageopacity="0"
     inkscape:pageshadow="2"
     inkscape:window-width="1920"
     inkscape:window-height="1017"
     id="namedview37"
     showgrid="false"
     inkscape:zoom="0.71507348"
     inkscape:cx="165.01801"
     inkscape:cy="165.01801"
     inkscape:window-x="-8"
     inkscape:window-y="-8"
     inkscape:window-maximized="1"
     inkscape:current-layer="Layer_1" /><g
     id="XMLID_1_"><path
       id="XMLID_452_"
       d="M105.737,188.354c5.858-5.857,15.355-5.857,21.213,0l30.445,30.445l61.354-61.354L188.305,127   c-2.813-2.813-4.394-6.628-4.394-10.606c0-3.978,1.581-7.794,4.394-10.607l61.365-61.364c5.857-5.857,15.355-5.858,21.213,0   l40.988,40.988c18.739,18.738,23.154,48.49,12.433,83.776c-9.739,32.052-31.143,65.745-60.27,94.87   c-40.688,40.689-90.591,65.965-130.233,65.965c-19.814,0-36.556-6.269-48.407-18.119c-0.592-0.591-40.998-40.998-40.998-40.998   c-2.813-2.813-4.393-6.628-4.393-10.606c0-3.979,1.581-7.794,4.394-10.607L105.737,188.354z M106.599,290.68   c6.199,6.198,15.351,9.341,27.203,9.341c31.493,0,74.286-22.444,109.02-57.178c25.703-25.702,44.447-54.958,52.778-82.378   c7.242-23.835,5.441-43.458-4.941-53.841l-30.382-30.382l-40.152,40.151l30.445,30.445c2.813,2.813,4.394,6.628,4.394,10.606   c0,3.978-1.581,7.793-4.394,10.606l-82.567,82.566c-5.858,5.858-15.355,5.858-21.213,0l-30.445-30.445l-40.126,40.126   C88.229,272.31,106.2,290.282,106.599,290.68z" /><path
       id="XMLID_455_"
       d="M46.904,46.918C77.15,16.672,117.365,0.014,160.141,0.014c8.284,0,15,6.716,15,15s-6.716,15-15,15   c-34.762,0-67.443,13.537-92.024,38.117c-24.58,24.58-38.117,57.26-38.117,92.021c0,8.284-6.715,15-15,15c-8.284,0-15-6.716-15-15   C0,117.378,16.657,77.164,46.904,46.918z" /><path
       id="XMLID_458_"
       d="M88.057,160.153c0,8.284-6.716,15-15,15c-8.284,0-15-6.716-15-15c0-56.289,45.795-102.084,102.084-102.084   c8.284,0,15,6.716,15,15c0,8.284-6.716,15-15,15C120.393,88.069,88.057,120.406,88.057,160.153z" /></g><g
     id="g6" /><g
     id="g8" /><g
     id="g10" /><g
     id="g12" /><g
     id="g14" /><g
     id="g16" /><g
     id="g18" /><g
     id="g20" /><g
     id="g22" /><g
     id="g24" /><g
     id="g26" /><g
     id="g28" /><g
     id="g30" /><g
     id="g32" /><g
     id="g34" /><path
     style="opacity:1;fill:#ffffff;fill-opacity:1;stroke:#ffffff;stroke-width:0;stroke-linecap:square;stroke-linejoin:round;stroke-miterlimit:4;stroke-dasharray:none;stroke-dashoffset:0;stroke-opacity:1"
     d="M 118.72906,328.02349 C 101.4051,324.4722 94.316494,319.78885 69.329842,295.38608 45.396784,272.01227 41.114656,266.60508 41.114656,259.75779 c 0,-4.62498 2.392183,-7.36932 34.447409,-39.51859 22.487925,-22.55389 35.693715,-34.78671 38.037185,-35.23469 6.23645,-1.19217 10.29912,1.54751 27.16449,18.31851 l 16.44086,16.34886 31.04656,-31.04655 31.04657,-31.04657 -17.07098,-17.4109 c -24.77372,-25.26705 -26.11674,-20.34902 17.5037,-64.097426 l 34.57467,-34.676087 h 6.31906 6.31904 L 292.3107,66.9162 c 26.96302,27.127101 30.74347,32.415614 35.00404,48.96748 3.14892,12.23318 1.86175,33.94755 -3.00372,50.67263 -14.57087,50.08749 -58.67343,104.31711 -111.18607,136.71721 -32.21353,19.87562 -69.93144,29.76501 -94.39589,24.74997 z m 37.88427,-30.71163 c 6.08396,-1.53844 18.61342,-6.55213 27.84324,-11.14156 61.08405,-30.37334 115.35932,-101.06137 115.56676,-150.51401 0.0785,-18.70392 -1.19516,-21.21961 -20.99506,-41.470166 -9.58845,-9.806684 -18.10488,-17.830335 -18.92539,-17.830335 -1.85977,0 -39.98564,37.919181 -39.98564,39.768861 0,0.74181 7.55167,8.98734 16.78149,18.32339 16.32106,16.50892 16.78149,17.14323 16.78149,23.11898 v 6.14434 l -45.12428,45.12427 -45.12428,45.12428 h -6.14433 c -5.97575,0 -6.61007,-0.46042 -23.11898,-16.78149 -9.33605,-9.22982 -17.565,-16.78149 -18.28655,-16.78149 -1.82823,0 -39.805703,38.07862 -39.805703,39.9117 0,1.9925 31.934843,33.33385 36.278233,35.60402 9.59333,5.01418 27.69942,5.58659 44.259,1.39921 z"
     id="path4518"
     inkscape:connector-curvature="0" /><path
     style="opacity:1;fill:#ffffff;fill-opacity:1;stroke:#ffffff;stroke-width:0;stroke-linecap:square;stroke-linejoin:round;stroke-miterlimit:4;stroke-dasharray:none;stroke-dashoffset:0;stroke-opacity:1"
     d="m 63.382405,170.16003 c -3.767664,-3.76767 -4.0878,-4.88325 -4.0878,-14.24485 0,-50.04871 45.010575,-95.289199 96.256565,-96.748241 9.96397,-0.283687 10.36589,-0.163816 14.33419,4.275179 9.29359,10.395938 2.34768,24.065428 -12.25717,24.122003 -2.93488,0.01133 -9.27577,0.94953 -14.09087,2.084804 -29.37652,6.926214 -51.135045,31.041135 -55.075907,61.040505 -1.979918,15.07192 -3.514181,19.04278 -8.317474,21.52666 -6.342661,3.27992 -12.136226,2.56925 -16.761534,-2.05606 z"
     id="path4520"
     inkscape:connector-curvature="0" /><path
     style="opacity:1;fill:#ffffff;fill-opacity:1;stroke:#ffffff;stroke-width:0;stroke-linecap:square;stroke-linejoin:round;stroke-miterlimit:4;stroke-dasharray:none;stroke-dashoffset:0;stroke-opacity:1"
     d="M 5.3141392,169.49307 C 1.0883988,165.26734 0.56030032,163.9059 0.56762712,157.25657 0.5888385,138.00656 7.8697358,107.77699 16.764481,90.008801 32.545648,58.484273 60.710649,30.801019 91.847962,16.209583 113.08375,6.2581567 141.45181,-0.12946766 158.82902,1.1274861 c 7.1839,0.5196366 9.09971,1.2370635 11.85394,4.4390545 4.75983,5.5336434 4.51284,13.8384204 -0.56251,18.9137844 -3.4905,3.490484 -5.34056,3.999358 -19.92803,5.481345 -18.63228,1.892913 -31.46935,5.269309 -45.66491,12.010749 -42.170026,20.026458 -71.321795,61.611001 -74.101548,105.704711 -0.935512,14.83952 -2.523816,20.16656 -7.081858,23.75191 -5.638424,4.43519 -12.383008,3.71099 -18.0299648,-1.93597 z"
     id="path4522"
     inkscape:connector-curvature="0" /></svg>