<?xml version="1.0" encoding="UTF-8" standalone="no"?>
<!-- Generator: Adobe Illustrator 19.0.0, SVG Export Plug-In . SVG Version: 6.00 Build 0)  -->

<svg
   xmlns:dc="http://purl.org/dc/elements/1.1/"
   xmlns:cc="http://creativecommons.org/ns#"
   xmlns:rdf="http://www.w3.org/1999/02/22-rdf-syntax-ns#"
   xmlns:svg="http://www.w3.org/2000/svg"
   xmlns="http://www.w3.org/2000/svg"
   xmlns:sodipodi="http://sodipodi.sourceforge.net/DTD/sodipodi-0.dtd"
   xmlns:inkscape="http://www.inkscape.org/namespaces/inkscape"
   version="1.1"
   id="Layer_1"
   x="0px"
   y="0px"
   viewBox="0 0 511.999 511.999"
   style="enable-background:new 0 0 511.999 511.999;"
   xml:space="preserve"
   sodipodi:docname="mail_letter.svg"
   inkscape:version="0.92.1 r15371"><metadata
     id="metadata49"><rdf:RDF><cc:Work
         rdf:about=""><dc:format>image/svg+xml</dc:format><dc:type
           rdf:resource="http://purl.org/dc/dcmitype/StillImage" /><dc:title></dc:title></cc:Work></rdf:RDF></metadata><defs
     id="defs47" /><sodipodi:namedview
     pagecolor="#ffffff"
     bordercolor="#666666"
     borderopacity="1"
     objecttolerance="10"
     gridtolerance="10"
     guidetolerance="10"
     inkscape:pageopacity="0"
     inkscape:pageshadow="2"
     inkscape:window-width="724"
     inkscape:window-height="480"
     id="namedview45"
     showgrid="false"
     inkscape:zoom="0.46093841"
     inkscape:cx="255.9995"
     inkscape:cy="255.9995"
     inkscape:window-x="0"
     inkscape:window-y="0"
     inkscape:window-maximized="0"
     inkscape:current-layer="Layer_1" /><g
     id="g6"><g
       id="g4"><path
         d="M444.253,47.065H67.747c-37.355,0-67.745,30.391-67.745,67.745v282.379c0,37.355,30.39,67.745,67.745,67.745h376.506    c37.355,0,67.745-30.391,67.745-67.745V114.81C511.998,77.455,481.608,47.065,444.253,47.065z M470.634,397.189    c0,14.546-11.835,26.381-26.381,26.381H67.747c-14.546,0-26.381-11.835-26.381-26.381V114.81    c0-14.546,11.835-26.381,26.381-26.381h376.506c14.546,0,26.381,11.835,26.381,26.381V397.189z"
         id="path2" /></g></g><g
     id="g12"><g
       id="g10"><path
         d="M508.259,102.95c-6.549-9.357-19.443-11.633-28.804-5.083L255.999,254.284L32.544,97.866    c-9.357-6.551-22.253-4.274-28.803,5.083s-4.274,22.253,5.083,28.803L244.14,296.474c3.561,2.493,7.71,3.738,11.86,3.738    c4.149,0,8.299-1.246,11.86-3.738l235.316-164.721C512.533,125.203,514.809,112.307,508.259,102.95z"
         id="path8" /></g></g><g
     id="g14" /><g
     id="g16" /><g
     id="g18" /><g
     id="g20" /><g
     id="g22" /><g
     id="g24" /><g
     id="g26" /><g
     id="g28" /><g
     id="g30" /><g
     id="g32" /><g
     id="g34" /><g
     id="g36" /><g
     id="g38" /><g
     id="g40" /><g
     id="g42" /></svg>