<?xml version="1.0" encoding="iso-8859-1"?>
<!-- Generator: Adobe Illustrator 19.0.0, SVG Export Plug-In . SVG Version: 6.00 Build 0)  -->
<svg version="1.1" id="Layer_1" xmlns="http://www.w3.org/2000/svg" xmlns:xlink="http://www.w3.org/1999/xlink" x="0px" y="0px"
	 viewBox="0 0 330.036 330.036" style="enable-background:new 0 0 330.036 330.036;" xml:space="preserve">
<g id="XMLID_1_">
	<path id="XMLID_452_" d="M105.737,188.354c5.858-5.857,15.355-5.857,21.213,0l30.445,30.445l61.354-61.354L188.305,127
		c-2.813-2.813-4.394-6.628-4.394-10.606c0-3.978,1.581-7.794,4.394-10.607l61.365-61.364c5.857-5.857,15.355-5.858,21.213,0
		l40.988,40.988c18.739,18.738,23.154,48.49,12.433,83.776c-9.739,32.052-31.143,65.745-60.27,94.87
		c-40.688,40.689-90.591,65.965-130.233,65.965c-19.814,0-36.556-6.269-48.407-18.119c-0.592-0.591-40.998-40.998-40.998-40.998
		c-2.813-2.813-4.393-6.628-4.393-10.606c0-3.979,1.581-7.794,4.394-10.607L105.737,188.354z M106.599,290.68
		c6.199,6.198,15.351,9.341,27.203,9.341c31.493,0,74.286-22.444,109.02-57.178c25.703-25.702,44.447-54.958,52.778-82.378
		c7.242-23.835,5.441-43.458-4.941-53.841l-30.382-30.382l-40.152,40.151l30.445,30.445c2.813,2.813,4.394,6.628,4.394,10.606
		c0,3.978-1.581,7.793-4.394,10.606l-82.567,82.566c-5.858,5.858-15.355,5.858-21.213,0l-30.445-30.445l-40.126,40.126
		C88.229,272.31,106.2,290.282,106.599,290.68z"/>
	<path id="XMLID_455_" d="M46.904,46.918C77.15,16.672,117.365,0.014,160.141,0.014c8.284,0,15,6.716,15,15s-6.716,15-15,15
		c-34.762,0-67.443,13.537-92.024,38.117c-24.58,24.58-38.117,57.26-38.117,92.021c0,8.284-6.715,15-15,15c-8.284,0-15-6.716-15-15
		C0,117.378,16.657,77.164,46.904,46.918z"/>
	<path id="XMLID_458_" d="M88.057,160.153c0,8.284-6.716,15-15,15c-8.284,0-15-6.716-15-15c0-56.289,45.795-102.084,102.084-102.084
		c8.284,0,15,6.716,15,15c0,8.284-6.716,15-15,15C120.393,88.069,88.057,120.406,88.057,160.153z"/>
</g>
<g>
</g>
<g>
</g>
<g>
</g>
<g>
</g>
<g>
</g>
<g>
</g>
<g>
</g>
<g>
</g>
<g>
</g>
<g>
</g>
<g>
</g>
<g>
</g>
<g>
</g>
<g>
</g>
<g>
</g>
</svg>
