<?xml version="1.0" encoding="UTF-8" standalone="no"?>
<!-- Generator: Adobe Illustrator 17.1.0, SVG Export Plug-In . SVG Version: 6.00 Build 0)  -->

<svg
   xmlns:dc="http://purl.org/dc/elements/1.1/"
   xmlns:cc="http://creativecommons.org/ns#"
   xmlns:rdf="http://www.w3.org/1999/02/22-rdf-syntax-ns#"
   xmlns:svg="http://www.w3.org/2000/svg"
   xmlns="http://www.w3.org/2000/svg"
   xmlns:sodipodi="http://sodipodi.sourceforge.net/DTD/sodipodi-0.dtd"
   xmlns:inkscape="http://www.inkscape.org/namespaces/inkscape"
   version="1.1"
   id="Layer_1"
   x="0px"
   y="0px"
   viewBox="0 0 50 50"
   enable-background="new 0 0 50 50"
   xml:space="preserve"
   sodipodi:docname="close.svg"
   inkscape:version="0.92.1 r15371"><metadata
     id="metadata9"><rdf:RDF><cc:Work
         rdf:about=""><dc:format>image/svg+xml</dc:format><dc:type
           rdf:resource="http://purl.org/dc/dcmitype/StillImage" /><dc:title></dc:title></cc:Work></rdf:RDF></metadata><defs
     id="defs7" /><sodipodi:namedview
     pagecolor="#ffffff"
     bordercolor="#666666"
     borderopacity="1"
     objecttolerance="10"
     gridtolerance="10"
     guidetolerance="10"
     inkscape:pageopacity="0"
     inkscape:pageshadow="2"
     inkscape:window-width="1680"
     inkscape:window-height="987"
     id="namedview5"
     showgrid="false"
     inkscape:zoom="8"
     inkscape:cx="-7.59407"
     inkscape:cy="41.419235"
     inkscape:window-x="1912"
     inkscape:window-y="-8"
     inkscape:window-maximized="1"
     inkscape:current-layer="Layer_1" /><path
     d="m 0.45920524,49.543287 c 0.3046803,0.304686 0.70467046,0.456248 1.10466246,0.456248 0.39999,0 0.799981,-0.153124 1.106224,-0.457811 L 25.000818,27.183999 47.331544,49.541724 c 0.30468,0.306249 0.704671,0.457811 1.106224,0.457811 0.399991,0 0.799981,-0.153124 1.104662,-0.456248 0.610923,-0.609373 0.610923,-1.598431 0.0016,-2.209367 L 27.235178,24.999633 49.542468,2.666908 c 0.60936,-0.6109351 0.60936,-1.5999939 -0.0016,-2.20936645 -0.612485,-0.6109351 -1.599962,-0.6109351 -2.209323,0.00156 L 24.999257,22.816829 2.6685297,0.45910405 c -0.610923,-0.6109351 -1.599963,-0.6109351 -2.20932346,-0.00156 -0.6109232,0.60937255 -0.6109232,1.59843135 -0.00156,2.20936645 L 22.763374,24.999633 0.45764624,47.33392 c -0.6093607,0.609373 -0.6093607,1.599994 0.001559,2.209367 z"
     id="path2"
     inkscape:connector-curvature="0"
     style="fill:#231f20;stroke-width:1.56247866" /><path
     style="opacity:1;fill:#ffffff;fill-opacity:1;stroke:#ffffff;stroke-width:0;stroke-linecap:square;stroke-linejoin:round;stroke-miterlimit:4;stroke-dasharray:none;stroke-dashoffset:0;stroke-opacity:1"
     d="M 0.80125134,49.710091 C 0.37010995,49.476156 0.08093,48.926006 0.08093,48.339716 c 0,-0.43407 0.48664619,-0.943386 11.378571,-11.908628 L 22.838072,24.975923 11.597456,13.722094 C 5.4151171,7.5324879 0.2947602,2.3454005 0.21888497,2.1952326 -0.2989975,1.1702704 0.67545824,-0.11490826 1.8148652,0.09034526 2.2114272,0.1617822 3.6980834,1.6005645 13.644022,11.538576 L 25.019614,22.905101 36.269022,11.647405 C 42.456196,5.4556725 47.679951,0.30396858 47.877365,0.19917449 48.875152,-0.33048389 50.112906,0.69391046 49.899127,1.8724319 49.823112,2.2914814 48.567149,3.5909583 38.479506,13.687688 L 27.145291,25.032109 38.412656,36.312688 c 6.19705,6.204317 11.329444,11.403442 11.405319,11.55361 0.442747,0.87626 -0.331956,2.039467 -1.358299,2.039467 -0.21735,0 -0.518046,-0.06208 -0.668214,-0.137955 -0.150167,-0.07587 -5.35107,-5.208688 -11.55756,-11.40625 L 24.949376,27.093265 13.887887,38.24072 C 7.8040694,44.37182 2.6379671,49.504632 2.4076606,49.64697 c -0.4877342,0.301436 -1.121313,0.326333 -1.60640926,0.06312 z"
     id="path4482"
     inkscape:connector-curvature="0" /></svg>