<?xml version="1.0" encoding="UTF-8" standalone="no"?>
<!-- Generator: Adobe Illustrator 17.1.0, SVG Export Plug-In . SVG Version: 6.00 Build 0)  -->

<svg
   xmlns:dc="http://purl.org/dc/elements/1.1/"
   xmlns:cc="http://creativecommons.org/ns#"
   xmlns:rdf="http://www.w3.org/1999/02/22-rdf-syntax-ns#"
   xmlns:svg="http://www.w3.org/2000/svg"
   xmlns="http://www.w3.org/2000/svg"
   xmlns:sodipodi="http://sodipodi.sourceforge.net/DTD/sodipodi-0.dtd"
   xmlns:inkscape="http://www.inkscape.org/namespaces/inkscape"
   version="1.1"
   id="Layer_1"
   x="0px"
   y="0px"
   viewBox="0 0 50 50"
   enable-background="new 0 0 50 50"
   xml:space="preserve"
   sodipodi:docname="menu_white.svg"
   inkscape:version="0.92.1 r15371"><metadata
     id="metadata13"><rdf:RDF><cc:Work
         rdf:about=""><dc:format>image/svg+xml</dc:format><dc:type
           rdf:resource="http://purl.org/dc/dcmitype/StillImage" /><dc:title></dc:title></cc:Work></rdf:RDF></metadata><defs
     id="defs11" /><sodipodi:namedview
     pagecolor="#ffffff"
     bordercolor="#666666"
     borderopacity="1"
     objecttolerance="10"
     gridtolerance="10"
     guidetolerance="10"
     inkscape:pageopacity="0"
     inkscape:pageshadow="2"
     inkscape:window-width="1680"
     inkscape:window-height="987"
     id="namedview9"
     showgrid="false"
     inkscape:zoom="7.9999999"
     inkscape:cx="-1.1870113"
     inkscape:cy="35.322611"
     inkscape:window-x="1912"
     inkscape:window-y="-8"
     inkscape:window-maximized="1"
     inkscape:current-layer="Layer_1" /><path
     style="fill:#231f20;stroke-width:1.56214893"
     inkscape:connector-curvature="0"
     d="M 1.5669031,9.3778593 H 48.431367 c 0.862305,0 1.562148,-0.6982803 1.562148,-1.5621472 0,-0.8638694 -0.699843,-1.5621496 -1.562148,-1.5621496 H 1.5669031 c -0.86230679,0 -1.56214948,0.6982802 -1.56214948,1.5621496 0,0.8638669 0.69828046,1.5621472 1.56214948,1.5621472 z"
     id="path2" /><path
     style="fill:#231f20;stroke-width:1.56214893"
     inkscape:connector-curvature="0"
     d="M 1.5669031,43.745133 H 48.431367 c 0.862305,0 1.562148,-0.698281 1.562148,-1.562147 0,-0.863869 -0.699843,-1.56215 -1.562148,-1.56215 H 1.5669031 c -0.86230679,0 -1.56214948,0.698281 -1.56214948,1.56215 0,0.863866 0.69828046,1.562147 1.56214948,1.562147 z"
     id="path4" /><path
     style="fill:#231f20;stroke-width:1.56214893"
     inkscape:connector-curvature="0"
     d="M 1.5669031,26.561498 H 48.431367 c 0.862305,0 1.562148,-0.698281 1.562148,-1.562149 0,-0.86387 -0.699843,-1.562149 -1.562148,-1.562149 H 1.5669031 c -0.86230679,0 -1.56214948,0.698279 -1.56214948,1.562149 0,0.863868 0.69828046,1.562149 1.56214948,1.562149 z"
     id="path6" /><path
     style="opacity:1;fill:#ffffff;fill-opacity:1;stroke:#ffffff;stroke-width:0;stroke-linecap:square;stroke-linejoin:round;stroke-miterlimit:4;stroke-dasharray:none;stroke-dashoffset:0;stroke-opacity:1"
     d="M 1.154603,9.2408836 C 0.53953741,9.0617929 0.11298876,8.4687913 0.11298876,7.7927983 c 0,-0.7567725 0.56197703,-1.3551364 1.38253454,-1.472051 0.305231,-0.04349 11.0761967,-0.062599 23.9354797,-0.042465 22.091433,0.034589 23.399065,0.048764 23.717009,0.257098 0.991446,0.6496516 0.991446,1.9093672 0,2.5590183 C 48.829809,9.3029017 47.526814,9.3160107 25.181002,9.3355219 11.059377,9.3478523 1.3911848,9.3097699 1.154603,9.2408836 Z"
     id="path4484"
     inkscape:connector-curvature="0" /><path
     style="opacity:1;fill:#ffffff;fill-opacity:1;stroke:#ffffff;stroke-width:0;stroke-linecap:square;stroke-linejoin:round;stroke-miterlimit:4;stroke-dasharray:none;stroke-dashoffset:0;stroke-opacity:1"
     d="M 0.84964742,26.315276 C 0.14461851,25.932072 -0.12315952,24.854001 0.31905125,24.179102 0.79191935,23.457414 -0.85010967,23.502389 25.025797,23.502389 h 23.800221 l 0.424736,0.28582 c 0.873898,0.588076 0.873898,1.840284 0,2.428361 l -0.424736,0.285819 -23.825264,-0.005 C 4.6877382,26.493118 1.1274543,26.466272 0.84964742,26.315276 Z"
     id="path4486"
     inkscape:connector-curvature="0" /><path
     style="opacity:1;fill:#ffffff;fill-opacity:1;stroke:#ffffff;stroke-width:0;stroke-linecap:square;stroke-linejoin:round;stroke-miterlimit:4;stroke-dasharray:none;stroke-dashoffset:0;stroke-opacity:1"
     d="m 0.53798876,43.202389 c -0.35805537,-0.358055 -0.425,-0.514061 -0.425,-0.990409 0,-0.700912 0.42980658,-1.2686 1.10178454,-1.455236 0.3066617,-0.08517 8.2886243,-0.128194 23.8709807,-0.128658 25.009534,-7.44e-4 23.887533,-0.02782 24.437272,0.589827 0.546841,0.614399 0.47062,1.547133 -0.170515,2.086612 l -0.383703,0.322864 H 24.965898 0.96298877 Z"
     id="path4488"
     inkscape:connector-curvature="0" /></svg>