<?xml version="1.0" encoding="UTF-8" standalone="no"?>
<!-- Generator: Adobe Illustrator 17.1.0, SVG Export Plug-In . SVG Version: 6.00 Build 0)  -->

<svg
   xmlns:dc="http://purl.org/dc/elements/1.1/"
   xmlns:cc="http://creativecommons.org/ns#"
   xmlns:rdf="http://www.w3.org/1999/02/22-rdf-syntax-ns#"
   xmlns:svg="http://www.w3.org/2000/svg"
   xmlns="http://www.w3.org/2000/svg"
   xmlns:sodipodi="http://sodipodi.sourceforge.net/DTD/sodipodi-0.dtd"
   xmlns:inkscape="http://www.inkscape.org/namespaces/inkscape"
   version="1.1"
   id="Layer_1"
   x="0px"
   y="0px"
   viewBox="0 0 50 50"
   enable-background="new 0 0 50 50"
   xml:space="preserve"
   sodipodi:docname="quick.svg"
   inkscape:version="0.92.1 r15371"
   width="50"
   height="50"><metadata
     id="metadata15"><rdf:RDF><cc:Work
         rdf:about=""><dc:format>image/svg+xml</dc:format><dc:type
           rdf:resource="http://purl.org/dc/dcmitype/StillImage" /><dc:title></dc:title></cc:Work></rdf:RDF></metadata><defs
     id="defs13" /><sodipodi:namedview
     pagecolor="#ffffff"
     bordercolor="#666666"
     borderopacity="1"
     objecttolerance="10"
     gridtolerance="10"
     guidetolerance="10"
     inkscape:pageopacity="0"
     inkscape:pageshadow="2"
     inkscape:window-width="1680"
     inkscape:window-height="987"
     id="namedview11"
     showgrid="false"
     inkscape:zoom="8"
     inkscape:cx="-9.688468"
     inkscape:cy="29.607412"
     inkscape:window-x="1912"
     inkscape:window-y="-8"
     inkscape:window-maximized="1"
     inkscape:current-layer="Layer_1"
     inkscape:snap-page="false" /><path
     inkscape:connector-curvature="0"
     d="M 1.5674167,23.306627 H 21.745541 c 0.864063,0 1.5625,-0.698437 1.5625,-1.5625 V 1.5660023 c 0,-0.86406202 -0.698437,-1.56249962 -1.5625,-1.56249962 H 1.5674167 c -0.86406305,0 -1.56250105,0.6984376 -1.56250105,1.56249962 V 21.744127 c 0,0.8625 0.7,1.5625 1.56250105,1.5625 z m 1.5625,-20.1781246 H 20.183041 V 20.181627 H 3.1299167 Z"
     id="path2"
     style="stroke-width:1.56250012" /><path
     inkscape:connector-curvature="0"
     d="m 28.264292,23.306627 h 20.178124 c 0.864063,0 1.5625,-0.698437 1.5625,-1.5625 V 1.5660023 c 0,-0.86406202 -0.698437,-1.56249962 -1.5625,-1.56249962 H 28.264292 c -0.864065,0 -1.5625,0.6984376 -1.5625,1.56249962 V 21.744127 c 0,0.8625 0.7,1.5625 1.5625,1.5625 z m 1.5625,-20.1781246 H 46.879916 V 20.181627 H 29.826792 Z"
     id="path4"
     style="stroke-width:1.56250012" /><path
     inkscape:connector-curvature="0"
     d="M 1.5674167,50.003503 H 21.745541 c 0.864063,0 1.5625,-0.698438 1.5625,-1.5625 V 28.261314 c 0,-0.864061 -0.698437,-1.5625 -1.5625,-1.5625 H 1.5674167 c -0.86406305,0 -1.56250105,0.698439 -1.56250105,1.5625 V 48.43944 c 0,0.864063 0.7,1.564063 1.56250105,1.564063 z m 1.5625,-20.179689 H 20.183041 V 46.87694 H 3.1299167 Z"
     id="path6"
     style="stroke-width:1.56250012" /><path
     inkscape:connector-curvature="0"
     d="m 26.701792,48.441003 c 0,0.864062 0.698435,1.5625 1.5625,1.5625 h 20.178124 c 0.864063,0 1.5625,-0.698438 1.5625,-1.5625 V 28.261314 c 0,-0.864061 -0.698437,-1.5625 -1.5625,-1.5625 H 28.264292 c -0.864065,0 -1.5625,0.698439 -1.5625,1.5625 z m 3.125,-18.617189 H 46.879916 V 46.87694 H 29.826792 Z"
     id="path8"
     style="stroke-width:1.56250012" /><path
     style="opacity:1;fill:#ffffff;fill-opacity:1;stroke:#ffffff;stroke-width:0;stroke-linecap:square;stroke-linejoin:round;stroke-miterlimit:4;stroke-dasharray:none;stroke-dashoffset:0;stroke-opacity:1"
     d="M 0.91761456,49.773656 C 0.06541027,49.353069 0.111532,50.009465 0.111532,38.301642 V 27.736769 l 0.32171196,-0.382333 c 0.17694158,-0.210283 0.52850408,-0.44235 0.78125004,-0.515705 0.3138081,-0.09108 3.7170616,-0.121523 10.731669,-0.09601 10.20505,0.03712 10.274436,0.03908 10.625,0.299415 0.194078,0.144127 0.422353,0.397252 0.507276,0.5625 0.225849,0.439464 0.224104,21.037712 -0.0018,21.484198 -0.08593,0.169812 -0.34654,0.436999 -0.579142,0.59375 l -0.422911,0.285002 -10.387764,-0.0028 C 2.6912235,49.962279 1.2479136,49.936667 0.91761456,49.773656 Z M 20.236532,38.342588 v -8.625 h -8.5625 -8.5625 v 8.625 8.625 h 8.5625 8.5625 z"
     id="path4485"
     inkscape:connector-curvature="0" /><path
     style="opacity:1;fill:#ffffff;fill-opacity:1;stroke:#ffffff;stroke-width:0;stroke-linecap:square;stroke-linejoin:round;stroke-miterlimit:4;stroke-dasharray:none;stroke-dashoffset:0;stroke-opacity:1"
     d="M 0.77575974,22.973809 C 0.55670999,22.840245 0.31764749,22.619154 0.24450974,22.482494 0.1535367,22.312509 0.111532,18.884012 0.111532,11.628619 0.111532,-0.02457496 0.06405932,0.69247715 0.86291255,0.27937409 1.4118825,-0.00450931 21.941376,-0.00182323 22.490623,0.28220386 23.269773,0.6851175 23.237021,0.1812744 23.231527,11.68013 c -0.0055,11.474745 0.02884,10.949793 -0.741956,11.348387 -0.317838,0.16436 -1.734674,0.18901 -10.840582,0.188603 -10.1516229,-5e-4 -10.4872506,-0.008 -10.87322926,-0.243311 z M 20.236532,11.655088 v -8.5625 h -8.5625 -8.5625 v 8.5625 8.5625 h 8.5625 8.5625 z"
     id="path4487"
     inkscape:connector-curvature="0" /><path
     style="opacity:1;fill:#ffffff;fill-opacity:1;stroke:#ffffff;stroke-width:0;stroke-linecap:square;stroke-linejoin:round;stroke-miterlimit:4;stroke-dasharray:none;stroke-dashoffset:0;stroke-opacity:1"
     d="m 27.387336,22.907619 c -0.202607,-0.170484 -0.432899,-0.465796 -0.51176,-0.65625 -0.104879,-0.253294 -0.134408,-3.16008 -0.109963,-10.824666 L 26.799032,0.94831739 27.265946,0.5204527 27.732861,0.092588 h 10.609978 10.609978 l 0.344505,0.27098752 c 0.709489,0.55808387 0.68921,0.2258507 0.68921,11.29151248 0,11.065661 0.02028,10.733429 -0.68921,11.291512 l -0.344505,0.270988 H 38.354265 27.755713 Z M 46.986532,11.655088 v -8.5625 h -8.625 -8.625 v 8.5625 8.5625 h 8.625 8.625 z"
     id="path4489"
     inkscape:connector-curvature="0" /><path
     style="opacity:1;fill:#ffffff;fill-opacity:1;stroke:#ffffff;stroke-width:0;stroke-linecap:square;stroke-linejoin:round;stroke-miterlimit:4;stroke-dasharray:none;stroke-dashoffset:0;stroke-opacity:1"
     d="m 27.611532,49.748644 c -0.919308,-0.459246 -0.874612,0.123648 -0.874612,-11.406056 0,-9.567789 0.01578,-10.344094 0.218556,-10.75 0.459187,-0.91919 -0.121378,-0.874589 11.387165,-0.874806 11.274525,-2.13e-4 10.841118,-0.02805 11.355321,0.729325 0.212964,0.313676 0.227959,0.938116 0.258645,10.770481 0.03044,9.753582 0.01816,10.466168 -0.1875,10.875 -0.462469,0.919369 0.1213,0.874611 -11.407575,0.874611 -9.567789,0 -10.344094,-0.01578 -10.75,-0.218555 z m 19.344611,-11.374806 -0.03211,-8.59375 h -8.5625 -8.5625 l -0.03211,8.59375 -0.03211,8.59375 h 8.626723 8.626722 z"
     id="path4491"
     inkscape:connector-curvature="0" /></svg>