<?xml version="1.0" encoding="UTF-8" standalone="no"?>
<!-- Generator: Adobe Illustrator 17.1.0, SVG Export Plug-In . SVG Version: 6.00 Build 0)  -->

<svg
   xmlns:dc="http://purl.org/dc/elements/1.1/"
   xmlns:cc="http://creativecommons.org/ns#"
   xmlns:rdf="http://www.w3.org/1999/02/22-rdf-syntax-ns#"
   xmlns:svg="http://www.w3.org/2000/svg"
   xmlns="http://www.w3.org/2000/svg"
   xmlns:sodipodi="http://sodipodi.sourceforge.net/DTD/sodipodi-0.dtd"
   xmlns:inkscape="http://www.inkscape.org/namespaces/inkscape"
   version="1.1"
   id="Layer_1"
   x="0px"
   y="0px"
   viewBox="0 0 50 50"
   enable-background="new 0 0 50 50"
   xml:space="preserve"
   sodipodi:docname="close.svg"
   inkscape:version="0.92.2 (5c3e80d, 2017-08-06)"><metadata
     id="metadata9"><rdf:RDF><cc:Work
         rdf:about=""><dc:format>image/svg+xml</dc:format><dc:type
           rdf:resource="http://purl.org/dc/dcmitype/StillImage" /></cc:Work></rdf:RDF></metadata><defs
     id="defs7" /><sodipodi:namedview
     pagecolor="#ffffff"
     bordercolor="#666666"
     borderopacity="1"
     objecttolerance="10"
     gridtolerance="10"
     guidetolerance="10"
     inkscape:pageopacity="0"
     inkscape:pageshadow="2"
     inkscape:window-width="1920"
     inkscape:window-height="1017"
     id="namedview5"
     showgrid="false"
     inkscape:zoom="4.72"
     inkscape:cx="-7.4152542"
     inkscape:cy="25"
     inkscape:window-x="-8"
     inkscape:window-y="-8"
     inkscape:window-maximized="1"
     inkscape:current-layer="Layer_1" /><path
     d="m 9.2930007,40.708065 c 0.195,0.195 0.451,0.292 0.7070003,0.292 0.256,0 0.512,-0.098 0.708,-0.293 l 14.292,-14.309 14.292,14.309 c 0.195,0.196 0.451,0.293 0.708,0.293 0.256,0 0.512,-0.098 0.707,-0.292 0.391,-0.39 0.391,-1.023 0.001,-1.414 l -14.278,-14.294 14.277,-14.293 c 0.39,-0.391 0.39,-1.024 -10e-4,-1.414 -0.392,-0.391 -1.024,-0.391 -1.414,10e-4 l -14.293,14.309 -14.292,-14.309 c -0.391,-0.391 -1.0240003,-0.391 -1.4140003,-10e-4 -0.391,0.39 -0.391,1.023 -0.001,1.414 l 14.2760003,14.293 -14.2760003,14.294 c -0.39,0.39 -0.39,1.024 0.001,1.414 z"
     id="path2"
     inkscape:connector-curvature="0"
     style="fill:#231f20" /></svg>