<?xml version="1.0" encoding="UTF-8" standalone="no"?>
<!-- Generator: Adobe Illustrator 19.0.0, SVG Export Plug-In . SVG Version: 6.00 Build 0)  -->

<svg
   xmlns:dc="http://purl.org/dc/elements/1.1/"
   xmlns:cc="http://creativecommons.org/ns#"
   xmlns:rdf="http://www.w3.org/1999/02/22-rdf-syntax-ns#"
   xmlns:svg="http://www.w3.org/2000/svg"
   xmlns="http://www.w3.org/2000/svg"
   xmlns:sodipodi="http://sodipodi.sourceforge.net/DTD/sodipodi-0.dtd"
   xmlns:inkscape="http://www.inkscape.org/namespaces/inkscape"
   version="1.1"
   id="Layer_1"
   x="0px"
   y="0px"
   viewBox="0 0 512 512"
   style="enable-background:new 0 0 512 512;"
   xml:space="preserve"
   sodipodi:docname="books.svg"
   inkscape:version="0.92.2 (5c3e80d, 2017-08-06)"><metadata
     id="metadata83"><rdf:RDF><cc:Work
         rdf:about=""><dc:format>image/svg+xml</dc:format><dc:type
           rdf:resource="http://purl.org/dc/dcmitype/StillImage" /><dc:title></dc:title></cc:Work></rdf:RDF></metadata><defs
     id="defs81" /><sodipodi:namedview
     pagecolor="#ffffff"
     bordercolor="#666666"
     borderopacity="1"
     objecttolerance="10"
     gridtolerance="10"
     guidetolerance="10"
     inkscape:pageopacity="0"
     inkscape:pageshadow="2"
     inkscape:window-width="716"
     inkscape:window-height="551"
     id="namedview79"
     showgrid="false"
     inkscape:zoom="0.4609375"
     inkscape:cx="256"
     inkscape:cy="256"
     inkscape:window-x="0"
     inkscape:window-y="78"
     inkscape:window-maximized="0"
     inkscape:current-layer="Layer_1" /><g
     id="g46"><g
       id="g44"><g
         id="g42"><path
           d="M366.933,170.667h-17.067c-4.71,0-8.533,3.823-8.533,8.533s3.823,8.533,8.533,8.533h17.067     c4.71,0,8.533-3.823,8.533-8.533S371.644,170.667,366.933,170.667z"
           id="path2"
           style="fill:#ffffff;fill-opacity:1" /><path
           d="M366.933,204.8h-17.067c-4.71,0-8.533,3.823-8.533,8.533c0,4.71,3.823,8.533,8.533,8.533h17.067     c4.71,0,8.533-3.823,8.533-8.533C375.467,208.623,371.644,204.8,366.933,204.8z"
           id="path4"
           style="fill:#ffffff;fill-opacity:1" /><path
           d="M366.933,136.533h-17.067c-4.71,0-8.533,3.823-8.533,8.533c0,4.71,3.823,8.533,8.533,8.533h17.067     c4.71,0,8.533-3.823,8.533-8.533C375.467,140.356,371.644,136.533,366.933,136.533z"
           id="path6"
           style="fill:#ffffff;fill-opacity:1" /><path
           d="M366.933,409.6h-17.067c-4.71,0-8.533,3.823-8.533,8.533s3.823,8.533,8.533,8.533h17.067c4.71,0,8.533-3.823,8.533-8.533     S371.644,409.6,366.933,409.6z"
           id="path8"
           style="fill:#ffffff;fill-opacity:1" /><path
           d="M179.2,136.533H128c-4.71,0-8.533,3.823-8.533,8.533v119.467c0,4.71,3.823,8.533,8.533,8.533h51.2     c4.71,0,8.533-3.823,8.533-8.533V145.067C187.733,140.356,183.91,136.533,179.2,136.533z M170.667,256h-34.133V153.6h34.133V256z     "
           id="path10"
           style="fill:#ffffff;fill-opacity:1" /><path
           d="M179.2,409.6H128c-4.71,0-8.533,3.823-8.533,8.533s3.823,8.533,8.533,8.533h51.2c4.71,0,8.533-3.823,8.533-8.533     S183.91,409.6,179.2,409.6z"
           id="path12"
           style="fill:#ffffff;fill-opacity:1" /><path
           d="M179.2,443.733H128c-4.71,0-8.533,3.823-8.533,8.533c0,4.71,3.823,8.533,8.533,8.533h51.2     c4.71,0,8.533-3.823,8.533-8.533C187.733,447.556,183.91,443.733,179.2,443.733z"
           id="path14"
           style="fill:#ffffff;fill-opacity:1" /><path
           d="M366.933,443.733h-17.067c-4.71,0-8.533,3.823-8.533,8.533c0,4.71,3.823,8.533,8.533,8.533h17.067     c4.71,0,8.533-3.823,8.533-8.533C375.467,447.556,371.644,443.733,366.933,443.733z"
           id="path16"
           style="fill:#ffffff;fill-opacity:1" /><path
           d="M469.333,443.733H435.2c-4.71,0-8.533,3.823-8.533,8.533c0,4.71,3.823,8.533,8.533,8.533h34.133     c4.71,0,8.533-3.823,8.533-8.533C477.867,447.556,474.044,443.733,469.333,443.733z"
           id="path18"
           style="fill:#ffffff;fill-opacity:1" /><path
           d="M290.133,145.067c0-4.71-3.823-8.533-8.533-8.533h-34.133c-4.71,0-8.533,3.823-8.533,8.533v119.467     c0,4.71,3.823,8.533,8.533,8.533H281.6c4.71,0,8.533-3.823,8.533-8.533V145.067z M273.067,256H256V153.6h17.067V256z"
           id="path20"
           style="fill:#ffffff;fill-opacity:1" /><path
           d="M469.333,409.6H435.2c-4.71,0-8.533,3.823-8.533,8.533s3.823,8.533,8.533,8.533h34.133c4.71,0,8.533-3.823,8.533-8.533     S474.044,409.6,469.333,409.6z"
           id="path22"
           style="fill:#ffffff;fill-opacity:1" /><path
           d="M281.6,443.733h-34.133c-4.71,0-8.533,3.823-8.533,8.533c0,4.71,3.823,8.533,8.533,8.533H281.6     c4.71,0,8.533-3.823,8.533-8.533C290.133,447.556,286.31,443.733,281.6,443.733z"
           id="path24"
           style="fill:#ffffff;fill-opacity:1" /><path
           d="M435.2,307.2c4.71,0,8.533-3.823,8.533-8.533v-85.333c0-4.71-3.823-8.533-8.533-8.533s-8.533,3.823-8.533,8.533v85.333     C426.667,303.377,430.49,307.2,435.2,307.2z"
           id="path26"
           style="fill:#ffffff;fill-opacity:1" /><path
           d="M477.867,213.333c0-4.71-3.823-8.533-8.533-8.533s-8.533,3.823-8.533,8.533v85.333c0,4.71,3.823,8.533,8.533,8.533     s8.533-3.823,8.533-8.533V213.333z"
           id="path28"
           style="fill:#ffffff;fill-opacity:1" /><path
           d="M486.4,68.267h-51.2c-4.71,0-8.533,3.823-8.533,8.533s3.823,8.533,8.533,8.533h51.2c4.702,0,8.533,3.831,8.533,8.533     V486.4c0,4.702-3.831,8.533-8.533,8.533h-76.8v-358.4h51.2c4.71,0,8.533-3.823,8.533-8.533s-3.823-8.533-8.533-8.533h-51.2v-76.8     c0-14.353-11.247-25.6-25.6-25.6h-51.2c-14.114,0-25.6,11.486-25.6,25.6v452.267h-85.333V51.2H281.6     c4.71,0,8.533-3.823,8.533-8.533c0-4.71-3.823-8.533-8.533-8.533h-59.733V25.6c0-14.353-11.247-25.6-25.6-25.6h-85.333     c-14.114,0-25.6,11.486-25.6,25.6v76.8H42.667c-4.71,0-8.533,3.823-8.533,8.533s3.823,8.533,8.533,8.533h42.667v375.467H25.6     c-4.702,0-8.533-3.831-8.533-8.533V76.8c0-4.702,3.831-8.533,8.533-8.533h34.133c4.71,0,8.533-3.823,8.533-8.533     S64.444,51.2,59.733,51.2H25.6C11.486,51.2,0,62.686,0,76.8v409.6C0,500.514,11.486,512,25.6,512h460.8     c14.114,0,25.6-11.486,25.6-25.6V93.867C512,79.753,500.514,68.267,486.4,68.267z M204.8,494.933H102.4V68.267h76.8     c4.71,0,8.533-3.823,8.533-8.533S183.91,51.2,179.2,51.2h-76.8V25.6c0-4.787,3.746-8.533,8.533-8.533h85.333     c4.864,0,8.533,3.669,8.533,8.533V494.933z M392.533,494.933h-68.267v-409.6h42.667c4.71,0,8.533-3.823,8.533-8.533     s-3.823-8.533-8.533-8.533h-42.667v-25.6c0-4.787,3.746-8.533,8.533-8.533H384c4.864,0,8.533,3.669,8.533,8.533V494.933z"
           id="path30"
           style="fill:#ffffff;fill-opacity:1" /><path
           d="M59.733,409.6H42.667c-4.71,0-8.533,3.823-8.533,8.533s3.823,8.533,8.533,8.533h17.067c4.71,0,8.533-3.823,8.533-8.533     S64.444,409.6,59.733,409.6z"
           id="path32"
           style="fill:#ffffff;fill-opacity:1" /><path
           d="M59.733,443.733H42.667c-4.71,0-8.533,3.823-8.533,8.533c0,4.71,3.823,8.533,8.533,8.533h17.067     c4.71,0,8.533-3.823,8.533-8.533C68.267,447.556,64.444,443.733,59.733,443.733z"
           id="path34"
           style="fill:#ffffff;fill-opacity:1" /><path
           d="M281.6,409.6h-34.133c-4.71,0-8.533,3.823-8.533,8.533s3.823,8.533,8.533,8.533H281.6c4.71,0,8.533-3.823,8.533-8.533     S286.31,409.6,281.6,409.6z"
           id="path36"
           style="fill:#ffffff;fill-opacity:1" /><path
           d="M59.733,204.8H42.667c-4.71,0-8.533,3.823-8.533,8.533c0,4.71,3.823,8.533,8.533,8.533h17.067     c4.71,0,8.533-3.823,8.533-8.533C68.267,208.623,64.444,204.8,59.733,204.8z"
           id="path38"
           style="fill:#ffffff;fill-opacity:1" /><path
           d="M59.733,238.933H42.667c-4.71,0-8.533,3.823-8.533,8.533S37.956,256,42.667,256h17.067c4.71,0,8.533-3.823,8.533-8.533     S64.444,238.933,59.733,238.933z"
           id="path40"
           style="fill:#ffffff;fill-opacity:1" /></g></g></g><g
     id="g48" /><g
     id="g50" /><g
     id="g52" /><g
     id="g54" /><g
     id="g56" /><g
     id="g58" /><g
     id="g60" /><g
     id="g62" /><g
     id="g64" /><g
     id="g66" /><g
     id="g68" /><g
     id="g70" /><g
     id="g72" /><g
     id="g74" /><g
     id="g76" /></svg>