<?xml version="1.0" encoding="UTF-8" standalone="no"?>
<!-- Generator: Adobe Illustrator 19.0.0, SVG Export Plug-In . SVG Version: 6.00 Build 0)  -->

<svg
   xmlns:dc="http://purl.org/dc/elements/1.1/"
   xmlns:cc="http://creativecommons.org/ns#"
   xmlns:rdf="http://www.w3.org/1999/02/22-rdf-syntax-ns#"
   xmlns:svg="http://www.w3.org/2000/svg"
   xmlns="http://www.w3.org/2000/svg"
   xmlns:sodipodi="http://sodipodi.sourceforge.net/DTD/sodipodi-0.dtd"
   xmlns:inkscape="http://www.inkscape.org/namespaces/inkscape"
   version="1.1"
   id="Layer_1"
   x="0px"
   y="0px"
   viewBox="0 0 512 512"
   style="enable-background:new 0 0 512 512;"
   xml:space="preserve"
   sodipodi:docname="newspaper.svg"
   inkscape:version="0.92.2 (5c3e80d, 2017-08-06)"><metadata
     id="metadata71"><rdf:RDF><cc:Work
         rdf:about=""><dc:format>image/svg+xml</dc:format><dc:type
           rdf:resource="http://purl.org/dc/dcmitype/StillImage" /><dc:title></dc:title></cc:Work></rdf:RDF></metadata><defs
     id="defs69" /><sodipodi:namedview
     pagecolor="#ffffff"
     bordercolor="#666666"
     borderopacity="1"
     objecttolerance="10"
     gridtolerance="10"
     guidetolerance="10"
     inkscape:pageopacity="0"
     inkscape:pageshadow="2"
     inkscape:window-width="716"
     inkscape:window-height="516"
     id="namedview67"
     showgrid="false"
     inkscape:measure-start="0,0"
     inkscape:measure-end="0,0"
     inkscape:zoom="0.4609375"
     inkscape:cx="256"
     inkscape:cy="256"
     inkscape:window-x="0"
     inkscape:window-y="78"
     inkscape:window-maximized="0"
     inkscape:current-layer="Layer_1" /><g
     id="g34"><g
       id="g32"><g
         id="g30"><path
           d="M162.133,102.4h136.533c4.71,0,8.533-3.823,8.533-8.533c0-4.71-3.823-8.533-8.533-8.533H162.133     c-4.71,0-8.533,3.823-8.533,8.533C153.6,98.577,157.423,102.4,162.133,102.4z"
           id="path2"
           style="fill:#ffffff;fill-opacity:1" /><path
           d="M375.467,315.733V332.8c0,4.719,3.823,8.533,8.533,8.533s8.533-3.814,8.533-8.533v-17.067     c0-4.71-3.823-8.533-8.533-8.533S375.467,311.023,375.467,315.733z"
           id="path4"
           style="fill:#ffffff;fill-opacity:1" /><path
           d="M418.133,102.4c4.71,0,8.533-3.823,8.533-8.533c0-4.71-3.823-8.533-8.533-8.533H384c-4.71,0-8.533,3.823-8.533,8.533     c0,4.71,3.823,8.533,8.533,8.533H418.133z"
           id="path6"
           style="fill:#ffffff;fill-opacity:1" /><path
           d="M153.6,264.533c0,4.71,3.823,8.533,8.533,8.533h51.2c2.261,0,4.437-0.896,6.033-2.5l53.7-53.7l19.567,19.567     c3.337,3.336,8.73,3.336,12.066,0l36.634-36.634l36.634,36.634c3.337,3.336,8.73,3.336,12.066,0c3.337-3.337,3.337-8.73,0-12.066     L347.366,181.7c-3.336-3.336-8.73-3.336-12.066,0l-36.634,36.634L279.1,198.767c-3.336-3.337-8.73-3.337-12.066,0L209.801,256     h-39.134V153.6H409.6V256H264.533c-4.71,0-8.533,3.823-8.533,8.533c0,4.71,3.823,8.533,8.533,8.533h153.6     c4.71,0,8.533-3.823,8.533-8.533V145.067c0-4.71-3.823-8.533-8.533-8.533h-256c-4.71,0-8.533,3.823-8.533,8.533V264.533z"
           id="path8"
           style="fill:#ffffff" /><path
           d="M349.867,494.933H76.8c-37.965,0-59.733-21.768-59.733-59.733V110.933c0-14.114,11.486-25.6,25.6-25.6     c4.71,0,8.533-3.823,8.533-8.533s-3.823-8.533-8.533-8.533C19.14,68.267,0,87.407,0,110.933V435.2C0,482.569,29.431,512,76.8,512     h273.067c4.71,0,8.533-3.823,8.533-8.533S354.577,494.933,349.867,494.933z"
           id="path10"
           style="fill:#ffffff;fill-opacity:1" /><path
           d="M42.667,119.467c-4.71,0-8.533,3.823-8.533,8.533v290.133c0,4.71,3.823,8.533,8.533,8.533     c4.71,0,8.533-3.823,8.533-8.533V128C51.2,123.29,47.377,119.467,42.667,119.467z"
           id="path12"
           style="fill:#ffffff;fill-opacity:1" /><path
           d="M418.133,290.133c-4.71,0-8.533,3.823-8.533,8.533V332.8c0,4.71,3.823,8.533,8.533,8.533s8.533-3.823,8.533-8.533     v-34.133C426.667,293.956,422.844,290.133,418.133,290.133z"
           id="path14"
           style="fill:#ffffff;fill-opacity:1" /><path
           d="M187.733,187.733c0,9.412,7.654,17.067,17.067,17.067c9.412,0,17.067-7.654,17.067-17.067s-7.654-17.067-17.067-17.067     C195.388,170.667,187.733,178.321,187.733,187.733z"
           id="path16"
           style="fill:#ffffff;fill-opacity:1" /><path
           d="M503.467,358.4H332.8h-51.2c-4.71,0-8.533,3.823-8.533,8.533v34.133c0,24.721,17.946,42.667,42.667,42.667h15.053     c13.696,34.91,47.642,59.733,87.347,59.733c51.755,0,93.867-42.112,93.867-93.867v-42.667     C512,362.223,508.177,358.4,503.467,358.4z M315.733,426.667c-15.309,0-25.6-10.291-25.6-25.6v-25.6h34.133V409.6     c0,5.837,0.606,11.529,1.63,17.067H315.733z M494.933,409.6c0,42.342-34.458,76.8-76.8,76.8s-76.8-34.458-76.8-76.8v-34.133     h153.6V409.6z"
           id="path18"
           style="fill:#ffffff;fill-opacity:1" /><path
           d="M469.333,0h-358.4C87.808,0,68.267,19.541,68.267,42.667v409.6c0,4.71,3.823,8.533,8.533,8.533s8.533-3.823,8.533-8.533     v-409.6c0-13.636,11.964-25.6,25.6-25.6h358.4c14.114,0,25.6,11.486,25.6,25.6V332.8c0,4.71,3.823,8.533,8.533,8.533     S512,337.51,512,332.8V42.667C512,19.14,492.86,0,469.333,0z"
           id="path20"
           style="fill:#ffffff" /><path
           d="M460.8,332.8v-17.067c0-4.71-3.823-8.533-8.533-8.533c-4.71,0-8.533,3.823-8.533,8.533V332.8     c0,4.719,3.823,8.533,8.533,8.533C456.977,341.333,460.8,337.519,460.8,332.8z"
           id="path22"
           style="fill:#ffffff;fill-opacity:1" /><path
           d="M162.133,324.267h85.333c4.71,0,8.533-3.823,8.533-8.533s-3.823-8.533-8.533-8.533h-85.333     c-4.71,0-8.533,3.823-8.533,8.533S157.423,324.267,162.133,324.267z"
           id="path24"
           style="fill:#ffffff;fill-opacity:1" /><path
           d="M162.133,426.667h51.2c4.71,0,8.533-3.823,8.533-8.533s-3.823-8.533-8.533-8.533h-51.2c-4.71,0-8.533,3.823-8.533,8.533     S157.423,426.667,162.133,426.667z"
           id="path26"
           style="fill:#ffffff;fill-opacity:1" /><path
           d="M162.133,375.467h51.2c4.71,0,8.533-3.823,8.533-8.533s-3.823-8.533-8.533-8.533h-51.2c-4.71,0-8.533,3.823-8.533,8.533     S157.423,375.467,162.133,375.467z"
           id="path28"
           style="fill:#ffffff;fill-opacity:1" /></g></g></g><g
     id="g36" /><g
     id="g38" /><g
     id="g40" /><g
     id="g42" /><g
     id="g44" /><g
     id="g46" /><g
     id="g48" /><g
     id="g50" /><g
     id="g52" /><g
     id="g54" /><g
     id="g56" /><g
     id="g58" /><g
     id="g60" /><g
     id="g62" /><g
     id="g64" /></svg>