<?xml version="1.0" encoding="UTF-8" standalone="no"?>
<!-- Generator: Adobe Illustrator 17.1.0, SVG Export Plug-In . SVG Version: 6.00 Build 0)  -->

<svg
   xmlns:dc="http://purl.org/dc/elements/1.1/"
   xmlns:cc="http://creativecommons.org/ns#"
   xmlns:rdf="http://www.w3.org/1999/02/22-rdf-syntax-ns#"
   xmlns:svg="http://www.w3.org/2000/svg"
   xmlns="http://www.w3.org/2000/svg"
   xmlns:sodipodi="http://sodipodi.sourceforge.net/DTD/sodipodi-0.dtd"
   xmlns:inkscape="http://www.inkscape.org/namespaces/inkscape"
   version="1.1"
   id="Layer_1"
   x="0px"
   y="0px"
   viewBox="0 0 50 50"
   enable-background="new 0 0 50 50"
   xml:space="preserve"
   sodipodi:docname="menu.svg"
   inkscape:version="0.92.2 (5c3e80d, 2017-08-06)"><metadata
     id="metadata13"><rdf:RDF><cc:Work
         rdf:about=""><dc:format>image/svg+xml</dc:format><dc:type
           rdf:resource="http://purl.org/dc/dcmitype/StillImage" /><dc:title /></cc:Work></rdf:RDF></metadata><defs
     id="defs11" /><sodipodi:namedview
     pagecolor="#ffffff"
     bordercolor="#666666"
     borderopacity="1"
     objecttolerance="10"
     gridtolerance="10"
     guidetolerance="10"
     inkscape:pageopacity="0"
     inkscape:pageshadow="2"
     inkscape:window-width="1920"
     inkscape:window-height="1017"
     id="namedview9"
     showgrid="false"
     inkscape:zoom="5.6568542"
     inkscape:cx="-7.6354836"
     inkscape:cy="20.057612"
     inkscape:window-x="-8"
     inkscape:window-y="-8"
     inkscape:window-maximized="1"
     inkscape:current-layer="Layer_1" /><path
     style="fill:#231f20"
     inkscape:connector-curvature="0"
     d="m 10.000001,14.999998 h 30 c 0.552,0 1,-0.447 1,-1 0,-0.553 -0.448,-1 -1,-1 h -30 c -0.5519999,0 -0.9999999,0.447 -0.9999999,1 0,0.553 0.447,1 0.9999999,1 z"
     id="path2" /><path
     style="fill:#231f20"
     inkscape:connector-curvature="0"
     d="m 10.000001,36.999998 h 30 c 0.552,0 1,-0.447 1,-1 0,-0.553 -0.448,-1 -1,-1 h -30 c -0.5519999,0 -0.9999999,0.447 -0.9999999,1 0,0.553 0.447,1 0.9999999,1 z"
     id="path4" /><path
     style="fill:#231f20"
     inkscape:connector-curvature="0"
     d="m 10.000001,25.999998 h 30 c 0.552,0 1,-0.447 1,-1 0,-0.553 -0.448,-1 -1,-1 h -30 c -0.5519999,0 -0.9999999,0.447 -0.9999999,1 0,0.553 0.447,1 0.9999999,1 z"
     id="path6" /></svg>