<?xml version="1.0" encoding="UTF-8" standalone="no"?>
<!-- Generator: Adobe Illustrator 17.1.0, SVG Export Plug-In . SVG Version: 6.00 Build 0)  -->

<svg
   xmlns:dc="http://purl.org/dc/elements/1.1/"
   xmlns:cc="http://creativecommons.org/ns#"
   xmlns:rdf="http://www.w3.org/1999/02/22-rdf-syntax-ns#"
   xmlns:svg="http://www.w3.org/2000/svg"
   xmlns="http://www.w3.org/2000/svg"
   xmlns:sodipodi="http://sodipodi.sourceforge.net/DTD/sodipodi-0.dtd"
   xmlns:inkscape="http://www.inkscape.org/namespaces/inkscape"
   version="1.1"
   id="Layer_1"
   x="0px"
   y="0px"
   viewBox="0 0 50 50"
   enable-background="new 0 0 50 50"
   xml:space="preserve"
   sodipodi:docname="close_red.svg"
   inkscape:version="0.92.2 (5c3e80d, 2017-08-06)"><metadata
     id="metadata9"><rdf:RDF><cc:Work
         rdf:about=""><dc:format>image/svg+xml</dc:format><dc:type
           rdf:resource="http://purl.org/dc/dcmitype/StillImage" /><dc:title></dc:title></cc:Work></rdf:RDF></metadata><defs
     id="defs7" /><sodipodi:namedview
     pagecolor="#ffffff"
     bordercolor="#666666"
     borderopacity="1"
     objecttolerance="10"
     gridtolerance="10"
     guidetolerance="10"
     inkscape:pageopacity="0"
     inkscape:pageshadow="2"
     inkscape:window-width="1680"
     inkscape:window-height="987"
     id="namedview5"
     showgrid="false"
     inkscape:zoom="8"
     inkscape:cx="-27.40657"
     inkscape:cy="41.419235"
     inkscape:window-x="1912"
     inkscape:window-y="-8"
     inkscape:window-maximized="1"
     inkscape:current-layer="Layer_1" /><path
     d="m 0.45920524,49.543287 c 0.3046803,0.304686 0.70467046,0.456248 1.10466246,0.456248 0.39999,0 0.799981,-0.153124 1.106224,-0.457811 L 25.000818,27.183999 47.331544,49.541724 c 0.30468,0.306249 0.704671,0.457811 1.106224,0.457811 0.399991,0 0.799981,-0.153124 1.104662,-0.456248 0.610923,-0.609373 0.610923,-1.598431 0.0016,-2.209367 L 27.235178,24.999633 49.542468,2.666908 c 0.60936,-0.6109351 0.60936,-1.5999939 -0.0016,-2.20936645 -0.612485,-0.6109351 -1.599962,-0.6109351 -2.209323,0.00156 L 24.999257,22.816829 2.6685297,0.45910405 c -0.610923,-0.6109351 -1.599963,-0.6109351 -2.20932346,-0.00156 -0.6109232,0.60937255 -0.6109232,1.59843135 -0.00156,2.20936645 L 22.763374,24.999633 0.45764624,47.33392 c -0.6093607,0.609373 -0.6093607,1.599994 0.001559,2.209367 z"
     id="path2"
     inkscape:connector-curvature="0"
     style="fill:#ff003c;stroke-width:1.56247866;fill-opacity:1" /></svg>