<?xml version="1.0" encoding="UTF-8" standalone="no"?>
<!-- Generator: Adobe Illustrator 17.1.0, SVG Export Plug-In . SVG Version: 6.00 Build 0)  -->

<svg
   xmlns:dc="http://purl.org/dc/elements/1.1/"
   xmlns:cc="http://creativecommons.org/ns#"
   xmlns:rdf="http://www.w3.org/1999/02/22-rdf-syntax-ns#"
   xmlns:svg="http://www.w3.org/2000/svg"
   xmlns="http://www.w3.org/2000/svg"
   xmlns:sodipodi="http://sodipodi.sourceforge.net/DTD/sodipodi-0.dtd"
   xmlns:inkscape="http://www.inkscape.org/namespaces/inkscape"
   version="1.1"
   id="Layer_1"
   x="0px"
   y="0px"
   viewBox="0 0 50 50"
   enable-background="new 0 0 50 50"
   xml:space="preserve"
   sodipodi:docname="menu.svg"
   inkscape:version="0.92.1 r15371"><metadata
     id="metadata13"><rdf:RDF><cc:Work
         rdf:about=""><dc:format>image/svg+xml</dc:format><dc:type
           rdf:resource="http://purl.org/dc/dcmitype/StillImage" /><dc:title></dc:title></cc:Work></rdf:RDF></metadata><defs
     id="defs11" /><sodipodi:namedview
     pagecolor="#ffffff"
     bordercolor="#666666"
     borderopacity="1"
     objecttolerance="10"
     gridtolerance="10"
     guidetolerance="10"
     inkscape:pageopacity="0"
     inkscape:pageshadow="2"
     inkscape:window-width="1680"
     inkscape:window-height="987"
     id="namedview9"
     showgrid="false"
     inkscape:zoom="7.9999999"
     inkscape:cx="19.625489"
     inkscape:cy="35.322611"
     inkscape:window-x="1912"
     inkscape:window-y="-8"
     inkscape:window-maximized="1"
     inkscape:current-layer="Layer_1" /><path
     style="fill:#231f20;stroke-width:1.56214893"
     inkscape:connector-curvature="0"
     d="M 1.5669031,9.3778593 H 48.431367 c 0.862305,0 1.562148,-0.6982803 1.562148,-1.5621472 0,-0.8638694 -0.699843,-1.5621496 -1.562148,-1.5621496 H 1.5669031 c -0.86230679,0 -1.56214948,0.6982802 -1.56214948,1.5621496 0,0.8638669 0.69828046,1.5621472 1.56214948,1.5621472 z"
     id="path2" /><path
     style="fill:#231f20;stroke-width:1.56214893"
     inkscape:connector-curvature="0"
     d="M 1.5669031,43.745133 H 48.431367 c 0.862305,0 1.562148,-0.698281 1.562148,-1.562147 0,-0.863869 -0.699843,-1.56215 -1.562148,-1.56215 H 1.5669031 c -0.86230679,0 -1.56214948,0.698281 -1.56214948,1.56215 0,0.863866 0.69828046,1.562147 1.56214948,1.562147 z"
     id="path4" /><path
     style="fill:#231f20;stroke-width:1.56214893"
     inkscape:connector-curvature="0"
     d="M 1.5669031,26.561498 H 48.431367 c 0.862305,0 1.562148,-0.698281 1.562148,-1.562149 0,-0.86387 -0.699843,-1.562149 -1.562148,-1.562149 H 1.5669031 c -0.86230679,0 -1.56214948,0.698279 -1.56214948,1.562149 0,0.863868 0.69828046,1.562149 1.56214948,1.562149 z"
     id="path6" /></svg>