<?xml version="1.0" encoding="UTF-8" standalone="no"?>
<!-- Generator: Adobe Illustrator 17.1.0, SVG Export Plug-In . SVG Version: 6.00 Build 0)  -->

<svg
   xmlns:dc="http://purl.org/dc/elements/1.1/"
   xmlns:cc="http://creativecommons.org/ns#"
   xmlns:rdf="http://www.w3.org/1999/02/22-rdf-syntax-ns#"
   xmlns:svg="http://www.w3.org/2000/svg"
   xmlns="http://www.w3.org/2000/svg"
   xmlns:sodipodi="http://sodipodi.sourceforge.net/DTD/sodipodi-0.dtd"
   xmlns:inkscape="http://www.inkscape.org/namespaces/inkscape"
   version="1.1"
   id="Layer_1"
   x="0px"
   y="0px"
   viewBox="0 0 50 50"
   enable-background="new 0 0 50 50"
   xml:space="preserve"
   sodipodi:docname="qucik.svg"
   inkscape:version="0.92.1 r15371"
   width="50"
   height="50"><metadata
     id="metadata15"><rdf:RDF><cc:Work
         rdf:about=""><dc:format>image/svg+xml</dc:format><dc:type
           rdf:resource="http://purl.org/dc/dcmitype/StillImage" /><dc:title></dc:title></cc:Work></rdf:RDF></metadata><defs
     id="defs13" /><sodipodi:namedview
     pagecolor="#ffffff"
     bordercolor="#666666"
     borderopacity="1"
     objecttolerance="10"
     gridtolerance="10"
     guidetolerance="10"
     inkscape:pageopacity="0"
     inkscape:pageshadow="2"
     inkscape:window-width="1680"
     inkscape:window-height="987"
     id="namedview11"
     showgrid="false"
     inkscape:zoom="8"
     inkscape:cx="11.124032"
     inkscape:cy="29.607412"
     inkscape:window-x="1912"
     inkscape:window-y="-8"
     inkscape:window-maximized="1"
     inkscape:current-layer="Layer_1"
     inkscape:snap-page="false" /><path
     inkscape:connector-curvature="0"
     d="M 1.5674167,23.306627 H 21.745541 c 0.864063,0 1.5625,-0.698437 1.5625,-1.5625 V 1.5660023 c 0,-0.86406202 -0.698437,-1.56249962 -1.5625,-1.56249962 H 1.5674167 c -0.86406305,0 -1.56250105,0.6984376 -1.56250105,1.56249962 V 21.744127 c 0,0.8625 0.7,1.5625 1.56250105,1.5625 z m 1.5625,-20.1781246 H 20.183041 V 20.181627 H 3.1299167 Z"
     id="path2"
     style="stroke-width:1.56250012" /><path
     inkscape:connector-curvature="0"
     d="m 28.264292,23.306627 h 20.178124 c 0.864063,0 1.5625,-0.698437 1.5625,-1.5625 V 1.5660023 c 0,-0.86406202 -0.698437,-1.56249962 -1.5625,-1.56249962 H 28.264292 c -0.864065,0 -1.5625,0.6984376 -1.5625,1.56249962 V 21.744127 c 0,0.8625 0.7,1.5625 1.5625,1.5625 z m 1.5625,-20.1781246 H 46.879916 V 20.181627 H 29.826792 Z"
     id="path4"
     style="stroke-width:1.56250012" /><path
     inkscape:connector-curvature="0"
     d="M 1.5674167,50.003503 H 21.745541 c 0.864063,0 1.5625,-0.698438 1.5625,-1.5625 V 28.261314 c 0,-0.864061 -0.698437,-1.5625 -1.5625,-1.5625 H 1.5674167 c -0.86406305,0 -1.56250105,0.698439 -1.56250105,1.5625 V 48.43944 c 0,0.864063 0.7,1.564063 1.56250105,1.564063 z m 1.5625,-20.179689 H 20.183041 V 46.87694 H 3.1299167 Z"
     id="path6"
     style="stroke-width:1.56250012" /><path
     inkscape:connector-curvature="0"
     d="m 26.701792,48.441003 c 0,0.864062 0.698435,1.5625 1.5625,1.5625 h 20.178124 c 0.864063,0 1.5625,-0.698438 1.5625,-1.5625 V 28.261314 c 0,-0.864061 -0.698437,-1.5625 -1.5625,-1.5625 H 28.264292 c -0.864065,0 -1.5625,0.698439 -1.5625,1.5625 z m 3.125,-18.617189 H 46.879916 V 46.87694 H 29.826792 Z"
     id="path8"
     style="stroke-width:1.56250012" /></svg>