<?xml version="1.0" encoding="iso-8859-1"?>
<!-- Generator: Adobe Illustrator 19.0.0, SVG Export Plug-In . SVG Version: 6.00 Build 0)  -->
<svg version="1.1" id="Layer_1" xmlns="http://www.w3.org/2000/svg" xmlns:xlink="http://www.w3.org/1999/xlink" x="0px" y="0px"
	 viewBox="0 0 330 330" style="enable-background:new 0 0 330 330;" xml:space="preserve">
<path id="XMLID_487_" d="M319.246,251.85C326.385,235.485,330,218.067,330,200c0-53.968-33.059-100.356-79.987-119.989
	C229.957,31.88,182.602,0,130,0C58.318,0,0,58.318,0,130c0,18.065,3.615,35.483,10.753,51.849L0.222,242.431
	c-0.836,4.809,0.721,9.724,4.172,13.175c2.837,2.837,6.662,4.394,10.605,4.394c0.854,0,1.714-0.073,2.57-0.222l60.586-10.533
	c0.614,0.267,1.238,0.512,1.856,0.77C99.647,296.943,146.033,330,200,330c18.063,0,35.481-3.615,51.85-10.753l60.581,10.532
	c0.856,0.149,1.716,0.222,2.57,0.222c3.942,0,7.768-1.556,10.605-4.394c3.452-3.452,5.008-8.367,4.172-13.176L319.246,251.85z
	 M33.429,226.571l7.679-44.168c0.536-3.083,0.094-6.258-1.264-9.078C33.312,159.762,30,145.186,30,130C30,74.86,74.86,30,130,30
	c32.149,0,61.748,15.483,80.299,40.407C206.9,70.14,203.466,70,200,70c-71.683,0-130,58.318-130,130
	c0,6.782,0.523,13.443,1.53,19.948L33.429,226.571z M288.894,252.402l7.678,44.169l-44.168-7.679
	c-3.081-0.537-6.257-0.094-9.077,1.263C229.761,296.688,215.184,300,200,300c-55.141,0-100-44.86-100-100s44.859-100,100-100
	s100,44.86,100,100c0,15.186-3.311,29.762-9.843,43.326C288.8,246.146,288.358,249.319,288.894,252.402z"/>
<g>
</g>
<g>
</g>
<g>
</g>
<g>
</g>
<g>
</g>
<g>
</g>
<g>
</g>
<g>
</g>
<g>
</g>
<g>
</g>
<g>
</g>
<g>
</g>
<g>
</g>
<g>
</g>
<g>
</g>
</svg>
